/* XPM */
static char *result[] = {
/* columns rows colors chars-per-pixel */
"50 50 44 1 ",
"  c #FFAD00",
". c #FFAE00",
"X c #FFB200",
"o c #FFB300",
"O c #FFBC00",
"+ c #FFBD00",
"@ c #FFB71D",
"# c #FFC000",
"$ c #FFC100",
"% c #FFC300",
"& c #FFC900",
"* c #FFCA00",
"= c #FFCE00",
"- c #FFD300",
"; c #FFD400",
": c #FFD500",
"> c #FFD600",
", c gold",
"< c #FFD800",
"1 c #FFD900",
"2 c #FFDA00",
"3 c #FFDB00",
"4 c #FFDC00",
"5 c #FFDD00",
"6 c #FFC313",
"7 c #FFE000",
"8 c #FFE100",
"9 c #FFE400",
"0 c #FFE600",
"q c #FFE700",
"w c #FFE800",
"e c #FFED00",
"r c #FFEE00",
"t c #FFF000",
"y c #FFF100",
"u c #FFD73A",
"i c #FFE13A",
"p c #FFE65B",
"a c #FFEB93",
"s c #FFF1A6",
"d c #FFF2A7",
"f c #FFF6E6",
"g c white",
"h c None",
/* pixels */
"hhhhhhhhhhhhhhhhhhhhhhhhhhhhhhhhhhhhhhhhhhhhhhhhhh",
"hhhhhhhhhhhhhhhhhhhhhhhhhhhhhhhhhhhhhhhhhhhhhhhhhh",
"hhhhhhhhhhhhhhhhhhhhhhhhhhhhhhhhhhhhhhhhhhhhhhhhhh",
"hhhhhhhhhhhhhhhhhhhhhhhhhhhhhhhhhhhhhhhhhhhhhhhhhh",
"hhhhhhhhhhhhhhhhhhhhhhhhhhhhhhhhhhhhhhhhhhhhhhhhhh",
"hhhhhhhhhhhhhhhhhhhhhhhhhhhhhhhhhhhhhhhhhhhhhhhhhh",
"hhhhhhhhhhhhhhhhhhhhhhhhhhhhhhhhhhhhhhhhhhhhhhhhhh",
"hhhhhhhhhhhhhhhhhtttttttttttttttthhhhhhhhhhhhhhhhh",
"hhhhhhhhhhhhhhhhhtttttttttttttttthhhhhhhhhhhhhhhhh",
"hhhhhhhhhhhhhhhhheeeeeeeeeeeeeeeehhhhhhhhhhhhhhhhh",
"hhhhhhhhhhhhhtttw33333333333333331<<<hhhhhhhhhhhhh",
"hhhhhhhhhhhhhtttw<<<<<<<<<<<<<<<<<<<<hhhhhhhhhhhhh",
"hhhhhhhhhhhhhttyw<<<<<<<<<<<<<<<<<<<<hhhhhhhhhhhhh",
"hhhhhhhhhhttt9785<<<1=+++++++#:<<<<<<<<<hhhhhhhhhh",
"hhhhhhhhhhttt7,<<<<<1&       X-<<<<<<<<<hhhhhhhhhh",
"hhhhhhhhhhtty8<<<<<,<&       X-<<<<<<<<<hhhhhhhhhh",
"hhhhhhhhhhwww5<<<<ippu++++++O$4873<<<<<<hhhhhhhhhh",
"hhhhhhhhhh<<<<<<<<sggs<<<<<<<3ett7<<<<<<hhhhhhhhhh",
"hhhhhhhhhh<<<<<<<<dggd<<<<<<<3ett7<<<<<<hhhhhhhhhh",
"hhhhhhhhhh<<<<<<<<affa<<<<<<<3ett7<<<<<<hhhhhhhhhh",
"hhhhhhhhhh<<<<<<<<6@@6<<<<<<<3ett7<<<<<<hhhhhhhhhh",
"hhhhhhhhhh<<<<<<<<O  O<<<<<<<3ett7<<<<<<hhhhhhhhhh",
"hhhhhhhhhh<<<<<<<<+  +<<<<<<<3ett7<<<<<<hhhhhhhhhh",
"hhhhhhhhhh<<<<<<<<+  +<<<<<<<3ett7<<<<<<hhhhhhhhhh",
"hhhhhhhhhh<<<<<<<<+  +<<<<<<<3ett7<<<<<<hhhhhhhhhh",
"hhhhhhhhhh<<<<<<<<+  +<<<<<<<3ett7<<<<<<hhhhhhhhhh",
"hhhhhhhhhh<<<<<<<<+  +<<<<<<<3ett7<<<<<<hhhhhhhhhh",
"hhhhhhhhhh<<<<<<<<+  +<<<<<<<3ett7<<<<<<hhhhhhhhhh",
"hhhhhhhhhh<<<<<<<<+  +<<<<<<<3ett7<<<<<<hhhhhhhhhh",
"hhhhhhhhhh<<<<<<<<+  +<<<<<<<3ett7<<<<<<hhhhhhhhhh",
"hhhhhhhhhh<<<<<<<<+  +<<<<<<<3ett7<<<<<<hhhhhhhhhh",
"hhhhhhhhhh<<<<<<<<+  +<<<<<<<3ett7<<<<<<hhhhhhhhhh",
"hhhhhhhhhh<<<<<<<<+  +<<<<<<<3ett7<<<<<<hhhhhhhhhh",
"hhhhhhhhhh<<<<<<<<=&&;wwwwwwwq8773<1=+++hhhhhhhhhh",
"hhhhhhhhhh<<<<<<<<11<8ytttttyr2,<<<1&   hhhhhhhhhh",
"hhhhhhhhhh<<<<<<<<<<<8ytttttyr3<<112*...hhhhhhhhhh",
"hhhhhhhhhh<<<<<<<<<<<5wwwwwww02<<=&*%...hhhhhhhhhh",
"hhhhhhhhhhhhh<<<<<<<<<<<<<<<<<<<<+ ..hhhhhhhhhhhhh",
"hhhhhhhhhhhhh<<<<<<<<<<<<<<<<<<<<+ ..hhhhhhhhhhhhh",
"hhhhhhhhhhhhh<<<>----------------O ..hhhhhhhhhhhhh",
"hhhhhhhhhhhhhhhhhoooooooooooooooohhhhhhhhhhhhhhhhh",
"hhhhhhhhhhhhhhhhh................hhhhhhhhhhhhhhhhh",
"hhhhhhhhhhhhhhhhh................hhhhhhhhhhhhhhhhh",
"hhhhhhhhhhhhhhhhhhhhhhhhhhhhhhhhhhhhhhhhhhhhhhhhhh",
"hhhhhhhhhhhhhhhhhhhhhhhhhhhhhhhhhhhhhhhhhhhhhhhhhh",
"hhhhhhhhhhhhhhhhhhhhhhhhhhhhhhhhhhhhhhhhhhhhhhhhhh",
"hhhhhhhhhhhhhhhhhhhhhhhhhhhhhhhhhhhhhhhhhhhhhhhhhh",
"hhhhhhhhhhhhhhhhhhhhhhhhhhhhhhhhhhhhhhhhhhhhhhhhhh",
"hhhhhhhhhhhhhhhhhhhhhhhhhhhhhhhhhhhhhhhhhhhhhhhhhh",
"hhhhhhhhhhhhhhhhhhhhhhhhhhhhhhhhhhhhhhhhhhhhhhhhhh"
};
