/* XPM */
static char *result[] = {
/* columns rows colors chars-per-pixel */
"50 50 51 1 ",
"  c #FFAD00",
". c #FFAE00",
"X c #FFB200",
"o c #FFB300",
"O c #FFBC00",
"+ c #FFBD00",
"@ c #FFB71D",
"# c #FFBB1A",
"$ c #FFC000",
"% c #FFC300",
"& c #FFC900",
"* c #FFCA00",
"= c #FFCD00",
"- c #FFCE00",
"; c #FFC10A",
": c #FFCC0A",
"> c #FFD200",
", c #FFD300",
"< c #FFD400",
"1 c #FFD500",
"2 c #FFD600",
"3 c gold",
"4 c #FFD403",
"5 c #FFD800",
"6 c #FFD900",
"7 c #FFDA00",
"8 c #FFDB00",
"9 c #FFDD00",
"0 c #FFDB1A",
"q c #FFDC1D",
"w c #FFDD1F",
"e c #FFE000",
"r c #FFE100",
"t c #FFE300",
"y c #FFE400",
"u c #FFE600",
"i c #FFE800",
"p c #FFED00",
"a c #FFEE00",
"s c #FFF000",
"d c #FFF100",
"f c #FFE14F",
"g c #FFE24F",
"h c #FFE65A",
"j c #FFF2C8",
"k c #FFF6E2",
"l c #FFF6E4",
"z c #FFFBE2",
"x c #FFFBE4",
"c c white",
"v c None",
/* pixels */
"vvvvvvvvvvvvvvvvvvvvvvvvvvvvvvvvvvvvvvvvvvvvvvvvvv",
"vvvvvvvvvvvvvvvvvvvvvvvvvvvvvvvvvvvvvvvvvvvvvvvvvv",
"vvvvvvvvvvvvvvvvvvvvvvvvvvvvvvvvvvvvvvvvvvvvvvvvvv",
"vvvvvvvvvvvvvvvvvvvvvvvvvvvvvvvvvvvvvvvvvvvvvvvvvv",
"vvvvvvvvvvvvvvvvvvvvvvvvvvvvvvvvvvvvvvvvvvvvvvvvvv",
"vvvvvvvvvvvvvvvvvvvvvvvvvvvvvvvvvvvvvvvvvvvvvvvvvv",
"vvvvvvvvvvvvvvvvvvvvvvvvvvvvvvvvvvvvvvvvvvvvvvvvvv",
"vvvvvvvvvvvvvvvvvssssssssssssssssvvvvvvvvvvvvvvvvv",
"vvvvvvvvvvvvvvvvvssssssssssssssssvvvvvvvvvvvvvvvvv",
"vvvvvvvvvvvvvvvvvppppppppppppppppvvvvvvvvvvvvvvvvv",
"vvvvvvvvvvvvvsssi88888888888888886555vvvvvvvvvvvvv",
"vvvvvvvvvvvvvsssi55555555555555555555vvvvvvvvvvvvv",
"vvvvvvvvvvvvvssdi55555555555555555555vvvvvvvvvvvvv",
"vvvvvvvvvvsssyer9551$+++++++-65555555555vvvvvvvvvv",
"vvvvvvvvvvssse35555,X       &65555555555vvvvvvvvvv",
"vvvvvvvvvvssdr55535>X       &55555555555vvvvvvvvvv",
"vvvvvvvvvviii955whhf;O++++++<rr955555555vvvvvvvvvv",
"vvvvvvvvvv555553hcczq5555555iddi55555555vvvvvvvvvv",
"vvvvvvvvvv555553hccxq5555555issi55555555vvvvvvvvvv",
"vvvvvvvvvv555553gklj05555555issi55555555vvvvvvvvvv",
"vvvvvvvvvv555556:@@#45555555issi55555555vvvvvvvvvv",
"vvvvvvvvvv555556&  X,5555555issi55555555vvvvvvvvvv",
"vvvvvvvvvv555556&..o,5555555issi55555555vvvvvvvvvv",
"vvvvvvvvvv555556&..o,5555555issi55555555vvvvvvvvvv",
"vvvvvvvvvv555556&..o,5555555issi55555555vvvvvvvvvv",
"vvvvvvvvvv555556&..o,5555555issi55555555vvvvvvvvvv",
"vvvvvvvvvv555556&..o,5555555issi55555555vvvvvvvvvv",
"vvvvvvvvvv555556&..o,5555555issi55555555vvvvvvvvvv",
"vvvvvvvvvv555556&..o,5555555issi55555555vvvvvvvvvv",
"vvvvvvvvvv555556&..o,5555555issi55555555vvvvvvvvvv",
"vvvvvvvvvv555556&..o,5555555issi55555555vvvvvvvvvv",
"vvvvvvvvvv555556&..o,5555555issi55555555vvvvvvvvvv",
"vvvvvvvvvv555556&..o,5555555iddi55555555vvvvvvvvvv",
"vvvvvvvvvv555555,&&=yiiiiiiiter95556-+++vvvvvvvvvv",
"vvvvvvvvvv5555555668adsssssde3555556&   vvvvvvvvvv",
"vvvvvvvvvv5555555558adsssssdr5555667*...vvvvvvvvvv",
"vvvvvvvvvv5555555557uiiiiiii95555-&*%...vvvvvvvvvv",
"vvvvvvvvvvvvv55555555555555555555+ ..vvvvvvvvvvvvv",
"vvvvvvvvvvvvv55555555555555555555+ ..vvvvvvvvvvvvv",
"vvvvvvvvvvvvv5552,,,,,,,,,,,,,,,,O ..vvvvvvvvvvvvv",
"vvvvvvvvvvvvvvvvvoooooooooooooooovvvvvvvvvvvvvvvvv",
"vvvvvvvvvvvvvvvvv................vvvvvvvvvvvvvvvvv",
"vvvvvvvvvvvvvvvvv................vvvvvvvvvvvvvvvvv",
"vvvvvvvvvvvvvvvvvvvvvvvvvvvvvvvvvvvvvvvvvvvvvvvvvv",
"vvvvvvvvvvvvvvvvvvvvvvvvvvvvvvvvvvvvvvvvvvvvvvvvvv",
"vvvvvvvvvvvvvvvvvvvvvvvvvvvvvvvvvvvvvvvvvvvvvvvvvv",
"vvvvvvvvvvvvvvvvvvvvvvvvvvvvvvvvvvvvvvvvvvvvvvvvvv",
"vvvvvvvvvvvvvvvvvvvvvvvvvvvvvvvvvvvvvvvvvvvvvvvvvv",
"vvvvvvvvvvvvvvvvvvvvvvvvvvvvvvvvvvvvvvvvvvvvvvvvvv",
"vvvvvvvvvvvvvvvvvvvvvvvvvvvvvvvvvvvvvvvvvvvvvvvvvv"
};
