/* XPM */
static char *result[] = {
/* columns rows colors chars-per-pixel */
"50 50 22 1 ",
"  c #FFAD00",
". c #FFAE00",
"X c #FFB200",
"o c #FFB300",
"O c #FFBD00",
"+ c #FFC000",
"@ c #FFC900",
"# c #FFCE00",
"$ c #FFD300",
"% c #FFD400",
"& c #FFD500",
"* c gold",
"= c #FFD800",
"- c #FFD900",
"; c #FFDA00",
": c #FFDB00",
"> c #FFDD00",
", c #FFDF00",
"< c #FFE000",
"1 c #FFED00",
"2 c #FFF000",
"3 c None",
/* pixels */
"33333333333333333333333333333333333333333333333333",
"33333333333333333333333333333333333333333333333333",
"33333333333333333333333333333333333333333333333333",
"33333333333333333333333333333333333333333333333333",
"33333333333333333333333333333333333333333333333333",
"33333333333333333333333333333333333333333333333333",
"33333333333333333333333333333333333333333333333333",
"33333333333333333333222222222233333333333333333333",
"33333333333333333333222222222233333333333333333333",
"33333333333333333333111111111133333333333333333333",
"33333333333333333221>::::::::;===33333333333333333",
"33333333333333333221:============33333333333333333",
"33333333333333333221:============33333333333333333",
"33333333333333333<<,-====-#OO+&==33333333333333333",
"33333333333333333========-@  X$==33333333333333333",
"33333333333333333========-@..o$==33333333333333333",
"33333333333333333========-@..o$==33333333333333333",
"33333333333333333========-@..o$==33333333333333333",
"33333333333333333========-@..o$==33333333333333333",
"33333333333333333========-@..o$==33333333333333333",
"33333333333333333========-@..o$==33333333333333333",
"33333333333333333========-@..o$==33333333333333333",
"33333333333333333========-@..o$==33333333333333333",
"33333333333333333========-@..o$==33333333333333333",
"33333333333333333========-@..o$==33333333333333333",
"33333333333333333========-@..o$==33333333333333333",
"33333333333333333========-@..o$==33333333333333333",
"33333333333333333========-@..o$==33333333333333333",
"33333333333333333========-@..o$==33333333333333333",
"33333333333333333========-@..o$==33333333333333333",
"33333333333333333========-@..o$==33333333333333333",
"33333333333333333========-@..o$==33333333333333333",
"33333333333333333========-@..o$==33333333333333333",
"33333333333333333========-@..o$==33333333333333333",
"33333333333333333========-@..o$==33333333333333333",
"33333333333333333========-@  X$==33333333333333333",
"33333333333333333========-#OO+&==33333333333333333",
"33333333333333333================33333333333333333",
"33333333333333333================33333333333333333",
"33333333333333333==*%$$$$$$$$%*==33333333333333333",
"33333333333333333333oooooooooo33333333333333333333",
"33333333333333333333..........33333333333333333333",
"33333333333333333333..........33333333333333333333",
"33333333333333333333333333333333333333333333333333",
"33333333333333333333333333333333333333333333333333",
"33333333333333333333333333333333333333333333333333",
"33333333333333333333333333333333333333333333333333",
"33333333333333333333333333333333333333333333333333",
"33333333333333333333333333333333333333333333333333",
"33333333333333333333333333333333333333333333333333"
};
