/* XPM */
static char *result[] = {
/* columns rows colors chars-per-pixel */
"50 50 28 1 ",
"  c #FFAD00",
". c #FFAE00",
"X c #FFB200",
"o c #FFB300",
"O c #FFBC00",
"+ c #FFBD00",
"@ c #FFC000",
"# c #FFC100",
"$ c #FFC900",
"% c #FFCB00",
"& c #FFCE00",
"* c #FFD000",
"= c #FFD300",
"- c #FFD400",
"; c #FFD500",
": c #FFD600",
"> c gold",
", c #FFD800",
"< c #FFD900",
"1 c #FFDA00",
"2 c #FFDB00",
"3 c #FFDC00",
"4 c #FFDD00",
"5 c #FFE000",
"6 c #FFE100",
"7 c #FFED00",
"8 c #FFF000",
"9 c None",
/* pixels */
"99999999999999999999999999999999999999999999999999",
"99999999999999999999999999999999999999999999999999",
"99999999999999999999999999999999999999999999999999",
"99999999999999999999999999999999999999999999999999",
"99999999999999999999999999999999999999999999999999",
"99999999999999999999999999999999999999999999999999",
"99999999999999999999999999999999999999999999999999",
"99999999999999999999888888888899999999999999999999",
"99999999999999999999888888888899999999999999999999",
"99999999999999999999777777777799999999999999999999",
"999999999999999998874222222221,,,99999999999999999",
"999999999999999998872,,,,,,,,,,,,99999999999999999",
"999999999999999998872,,,,,,,,,,,,99999999999999999",
"99999999999999999563#O+&<,,,,,,,,99999999999999999",
"99999999999999999,,=X  $<,,,,,,,,99999999999999999",
"99999999999999999,,=o..$<,,,,,,,,99999999999999999",
"99999999999999999,,=o..$<,,,,,,,,99999999999999999",
"99999999999999999,,=o..$<,,,,,,,,99999999999999999",
"99999999999999999,,=o..$<,,,,,,,,99999999999999999",
"99999999999999999,,=o..$<,,,,,,,,99999999999999999",
"99999999999999999,,=o..$<,,,,,,,,99999999999999999",
"99999999999999999,,=o..$<,,,,,,,,99999999999999999",
"99999999999999999,,=o..$<,,,,,,,,99999999999999999",
"99999999999999999,,=o..$<,,,,,,,,99999999999999999",
"99999999999999999,,=o..$<,,,,,,,,99999999999999999",
"99999999999999999,,=o..$<,,,,,,,,99999999999999999",
"99999999999999999,,=o..$<,,,,,,,,99999999999999999",
"99999999999999999,,=o..$<,,,,,,,,99999999999999999",
"99999999999999999,,=o..$<,,,,,,,,99999999999999999",
"99999999999999999,,=o..$<,,,,,,,,99999999999999999",
"99999999999999999,,=o..$<,,,,,,,,99999999999999999",
"99999999999999999,,=o..$<,,,,,,,,99999999999999999",
"99999999999999999,,=o..$<,,,,,,,,99999999999999999",
"99999999999999999,,=o..$<,,,,,,,,99999999999999999",
"99999999999999999,,=o..$<,,,,,,,,99999999999999999",
"99999999999999999,,=X  $<,,,,,<<<99999999999999999",
"99999999999999999,,;@++&<,,,,:%$$99999999999999999",
"99999999999999999,,,,,,,,,,,,=o..99999999999999999",
"99999999999999999,,,,,,,,,,,<=o..99999999999999999",
"99999999999999999,,>-========*o..99999999999999999",
"99999999999999999999oooooooooo99999999999999999999",
"99999999999999999999..........99999999999999999999",
"99999999999999999999..........99999999999999999999",
"99999999999999999999999999999999999999999999999999",
"99999999999999999999999999999999999999999999999999",
"99999999999999999999999999999999999999999999999999",
"99999999999999999999999999999999999999999999999999",
"99999999999999999999999999999999999999999999999999",
"99999999999999999999999999999999999999999999999999",
"99999999999999999999999999999999999999999999999999"
};
