/* XPM */
static char *result[] = {
/* columns rows colors chars-per-pixel */
"50 50 35 1 ",
"  c #FFAD00",
". c #FFAE00",
"X c #FFB200",
"o c #FFB300",
"O c #FFB500",
"+ c #FFBC00",
"@ c #FFBD00",
"# c #FFC000",
"$ c #FFC100",
"% c #FFC500",
"& c #FFC700",
"* c #FFC900",
"= c #FFCA00",
"- c #FFCE00",
"; c #FFD300",
": c #FFD400",
"> c #FFD500",
", c gold",
"< c #FFD800",
"1 c #FFD900",
"2 c #FFDA00",
"3 c #FFDB00",
"4 c #FFDC00",
"5 c #FFDD00",
"6 c #FFE000",
"7 c #FFE100",
"8 c #FFE600",
"9 c #FFE700",
"0 c #FFE800",
"q c #FFEC00",
"w c #FFED00",
"e c #FFEE00",
"r c #FFF000",
"t c #FFF100",
"y c None",
/* pixels */
"yyyyyyyyyyyyyyyyyyyyyyyyyyyyyyyyyyyyyyyyyyyyyyyyyy",
"yyyyyyyyyyyyyyyyyyyyyyyyyyyyyyyyyyyyyyyyyyyyyyyyyy",
"yyyyyyyyyyyyyyyyyyyyyyyyyyyyyyyyyyyyyyyyyyyyyyyyyy",
"yyyyyyyyyyyyyyyyyyyyyyyyyyyyyyyyyyyyyyyyyyyyyyyyyy",
"yyyyyyyyyyyyyyyyyyyyyyyyyyyyyyyyyyyyyyyyyyyyyyyyyy",
"yyyyyyyyyyyyyyyyyyyyyyyyyyyyyyyyyyyyyyyyyyyyyyyyyy",
"yyyyyyyyyyyyyyyyyyyyyyyyyyyyyyyyyyyyyyyyyyyyyyyyyy",
"yyyyyyyyyyyyyyyyyyrrrrrrrrrrrrrryyyyyyyyyyyyyyyyyy",
"yyyyyyyyyyyyyyyyyyrrrrrrrrrrrrrryyyyyyyyyyyyyyyyyy",
"yyyyyyyyyyyyyyyyyywwwwwwwwwwwwwqyyyyyyyyyyyyyyyyyy",
"yyyyyyyyyyyyyyyrrr72333333333332<<<yyyyyyyyyyyyyyy",
"yyyyyyyyyyyyyyyrrr6,<<<<<<<<<<<<<<<yyyyyyyyyyyyyyy",
"yyyyyyyyyyyyyyyrrr6<<<<<<<<<<<<<<<<yyyyyyyyyyyyyyy",
"yyyyyyyyyyyyrrw7663<1-@@#><<<<<<<<<<<<yyyyyyyyyyyy",
"yyyyyyyyyyyyrrw2,<<<1*  X;<<<<<<<<<<<<yyyyyyyyyyyy",
"yyyyyyyyyyyyrte3<<112=  X;<<<<<<<<<<<<yyyyyyyyyyyy",
"yyyyyyyyyyyy0082<<-*=%@+$4763<<<<<<<<<yyyyyyyyyyyy",
"yyyyyyyyyyyy<<<<<<@  @<<3wrr6<<<<<<<<<yyyyyyyyyyyy",
"yyyyyyyyyyyy<<<<<<@  @<<3wrr6<<<<<<<<<yyyyyyyyyyyy",
"yyyyyyyyyyyy<<<<<<@  @<<3wrr6<<<<<<<<<yyyyyyyyyyyy",
"yyyyyyyyyyyy<<<<<<@  @<<3wrr6<<<<<<<<<yyyyyyyyyyyy",
"yyyyyyyyyyyy<<<<<<@  @<<3wrr6<<<<<<<<<yyyyyyyyyyyy",
"yyyyyyyyyyyy<<<<<<@  @<<3wrr6<<<<<<<<<yyyyyyyyyyyy",
"yyyyyyyyyyyy<<<<<<@  @<<3wrr6<<<<<<<<<yyyyyyyyyyyy",
"yyyyyyyyyyyy<<<<<<@  @<<3wrr6<<<<<<<<<yyyyyyyyyyyy",
"yyyyyyyyyyyy<<<<<<@  @<<3wrr6<<<<<<<<<yyyyyyyyyyyy",
"yyyyyyyyyyyy<<<<<<@  @<<3wrr6<<<<<<<<<yyyyyyyyyyyy",
"yyyyyyyyyyyy<<<<<<@  @<<3wrr6<<<<<<<<<yyyyyyyyyyyy",
"yyyyyyyyyyyy<<<<<<@  @<<3wrr6<<<<<<<<<yyyyyyyyyyyy",
"yyyyyyyyyyyy<<<<<<@  @<<3wrr6<<<<<<<<<yyyyyyyyyyyy",
"yyyyyyyyyyyy<<<<<<@  @<<3wrr6<<<<<<<<<yyyyyyyyyyyy",
"yyyyyyyyyyyy<<<<<<@  @<<3wrr6<<<<<<<<<yyyyyyyyyyyy",
"yyyyyyyyyyyy<<<<<<@  @<<3wrr6<<<<<<<<<yyyyyyyyyyyy",
"yyyyyyyyyyyy<<<<<<-**:0097663<<<<<>#@@yyyyyyyyyyyy",
"yyyyyyyyyyyy<<<<<<11<7tte2,<<<<<<<;X  yyyyyyyyyyyy",
"yyyyyyyyyyyy<<<<<<<<<7tte3<<<<<<11:o..yyyyyyyyyyyy",
"yyyyyyyyyyyy<<<<<<<<<50082<<<<<;**&X..yyyyyyyyyyyy",
"yyyyyyyyyyyyyyy<<<<<<<<<<<<<<<1*...yyyyyyyyyyyyyyy",
"yyyyyyyyyyyyyyy<<<<<<<<<<<<<<<1*...yyyyyyyyyyyyyyy",
"yyyyyyyyyyyyyyy<<<>;;;;;;;;;;;:&...yyyyyyyyyyyyyyy",
"yyyyyyyyyyyyyyyyyyOooooooooooooXyyyyyyyyyyyyyyyyyy",
"yyyyyyyyyyyyyyyyyy..............yyyyyyyyyyyyyyyyyy",
"yyyyyyyyyyyyyyyyyy..............yyyyyyyyyyyyyyyyyy",
"yyyyyyyyyyyyyyyyyyyyyyyyyyyyyyyyyyyyyyyyyyyyyyyyyy",
"yyyyyyyyyyyyyyyyyyyyyyyyyyyyyyyyyyyyyyyyyyyyyyyyyy",
"yyyyyyyyyyyyyyyyyyyyyyyyyyyyyyyyyyyyyyyyyyyyyyyyyy",
"yyyyyyyyyyyyyyyyyyyyyyyyyyyyyyyyyyyyyyyyyyyyyyyyyy",
"yyyyyyyyyyyyyyyyyyyyyyyyyyyyyyyyyyyyyyyyyyyyyyyyyy",
"yyyyyyyyyyyyyyyyyyyyyyyyyyyyyyyyyyyyyyyyyyyyyyyyyy",
"yyyyyyyyyyyyyyyyyyyyyyyyyyyyyyyyyyyyyyyyyyyyyyyyyy"
};
