/* XPM */
static char *result[] = {
/* columns rows colors chars-per-pixel */
"50 50 34 1 ",
"  c #FFAD00",
". c #FFAE00",
"X c #FFB200",
"o c #FFB300",
"O c #FFB500",
"+ c #FFBD00",
"@ c #FFBE00",
"# c #FFC000",
"$ c #FFC700",
"% c #FFC800",
"& c #FFC900",
"* c #FFCD00",
"= c #FFCE00",
"- c #FFD300",
"; c #FFD400",
": c #FFD500",
"> c gold",
", c #FFD800",
"< c #FFD900",
"1 c #FFDA00",
"2 c #FFDB00",
"3 c #FFDD00",
"4 c #FFE000",
"5 c #FFE100",
"6 c #FFE300",
"7 c #FFE400",
"8 c #FFE600",
"9 c #FFE800",
"0 c #FFEC00",
"q c #FFED00",
"w c #FFEE00",
"e c #FFF000",
"r c #FFF100",
"t c None",
/* pixels */
"tttttttttttttttttttttttttttttttttttttttttttttttttt",
"tttttttttttttttttttttttttttttttttttttttttttttttttt",
"tttttttttttttttttttttttttttttttttttttttttttttttttt",
"tttttttttttttttttttttttttttttttttttttttttttttttttt",
"tttttttttttttttttttttttttttttttttttttttttttttttttt",
"tttttttttttttttttttttttttttttttttttttttttttttttttt",
"tttttttttttttttttttttttttttttttttttttttttttttttttt",
"tttttttttttttttttteeeeeeeeeeeeeetttttttttttttttttt",
"tttttttttttttttttteeeeeeeeeeeeeetttttttttttttttttt",
"ttttttttttttttttttqqqqqqqqqqqqq0tttttttttttttttttt",
"ttttttttttttttteee51222222222221,,,ttttttttttttttt",
"ttttttttttttttteee4>,,,,,,,,,,,,,,,ttttttttttttttt",
"ttttttttttttttteee4,,,,,,,,,,,,,,,,ttttttttttttttt",
"tttttttttttteeq5442,,,,,:#++=<,,,,,,,,tttttttttttt",
"tttttttttttteeq1>,,,,,,,-X  &<,,,,,,,,tttttttttttt",
"tttttttttttterw2,,,,,,<<;X  &,,,,,,,,,tttttttttttt",
"tttttttttttt9981,,,,,-&&%@++;553,,,,,,tttttttttttt",
"tttttttttttt,,,,,,,,<&..o-,,9rr9,,,,,,tttttttttttt",
"tttttttttttt,,,,,,,,<&..o-,,9ee9,,,,,,tttttttttttt",
"tttttttttttt,,,,,,,,<&..o-,,9ee9,,,,,,tttttttttttt",
"tttttttttttt,,,,,,,,<&..o-,,9ee9,,,,,,tttttttttttt",
"tttttttttttt,,,,,,,,<&..o-,,9ee9,,,,,,tttttttttttt",
"tttttttttttt,,,,,,,,<&..o-,,9ee9,,,,,,tttttttttttt",
"tttttttttttt,,,,,,,,<&..o-,,9ee9,,,,,,tttttttttttt",
"tttttttttttt,,,,,,,,<&..o-,,9ee9,,,,,,tttttttttttt",
"tttttttttttt,,,,,,,,<&..o-,,9ee9,,,,,,tttttttttttt",
"tttttttttttt,,,,,,,,<&..o-,,9ee9,,,,,,tttttttttttt",
"tttttttttttt,,,,,,,,<&..o-,,9ee9,,,,,,tttttttttttt",
"tttttttttttt,,,,,,,,<&..o-,,9ee9,,,,,,tttttttttttt",
"tttttttttttt,,,,,,,,<&..o-,,9ee9,,,,,,tttttttttttt",
"tttttttttttt,,,,,,,,<&..o-,,9ee9,,,,,,tttttttttttt",
"tttttttttttt,,,,,,,,<&..o-,,9ee9,,,,,,tttttttttttt",
"tttttttttttt,,,,,,,,<&..o-,,9rr9,,,,,,tttttttttttt",
"tttttttttttt,,,,,,,,,-&&*7996453,,:#++tttttttttttt",
"tttttttttttt,,,,,,,,,,<<2wrr4>,,,,-X  tttttttttttt",
"tttttttttttt,,,,,,,,,,,,2wrr5,,,<<;o..tttttttttttt",
"tttttttttttt,,,,,,,,,,,,18993,,-&&$X..tttttttttttt",
"ttttttttttttttt,,,,,,,,,,,,,,,<&...ttttttttttttttt",
"ttttttttttttttt,,,,,,,,,,,,,,,<&...ttttttttttttttt",
"ttttttttttttttt,,,:-----------;$...ttttttttttttttt",
"ttttttttttttttttttOooooooooooooXtttttttttttttttttt",
"tttttttttttttttttt..............tttttttttttttttttt",
"tttttttttttttttttt..............tttttttttttttttttt",
"tttttttttttttttttttttttttttttttttttttttttttttttttt",
"tttttttttttttttttttttttttttttttttttttttttttttttttt",
"tttttttttttttttttttttttttttttttttttttttttttttttttt",
"tttttttttttttttttttttttttttttttttttttttttttttttttt",
"tttttttttttttttttttttttttttttttttttttttttttttttttt",
"tttttttttttttttttttttttttttttttttttttttttttttttttt",
"tttttttttttttttttttttttttttttttttttttttttttttttttt"
};
