/* XPM */
static char *result[] = {
/* columns rows colors chars-per-pixel */
"50 50 8 1 ",
"  c #FFAE00",
". c #FFB300",
"X c #FFD300",
"o c #FFD800",
"O c #FFDB00",
"+ c #FFED00",
"@ c #FFF000",
"# c None",
/* pixels */
"##################################################",
"##################################################",
"##################################################",
"##################################################",
"##################################################",
"##################################################",
"##################################################",
"####################@@@@@@@@@@####################",
"####################@@@@@@@@@@####################",
"####################++++++++++####################",
"####################OOOOOOOOOO####################",
"####################oooooooooo####################",
"####################oooooooooo####################",
"####################oooooooooo####################",
"####################oooooooooo####################",
"####################oooooooooo####################",
"####################oooooooooo####################",
"####################oooooooooo####################",
"####################oooooooooo####################",
"####################oooooooooo####################",
"####################oooooooooo####################",
"####################oooooooooo####################",
"####################oooooooooo####################",
"####################oooooooooo####################",
"####################oooooooooo####################",
"####################oooooooooo####################",
"####################oooooooooo####################",
"####################oooooooooo####################",
"####################oooooooooo####################",
"####################oooooooooo####################",
"####################oooooooooo####################",
"####################oooooooooo####################",
"####################oooooooooo####################",
"####################oooooooooo####################",
"####################oooooooooo####################",
"####################oooooooooo####################",
"####################oooooooooo####################",
"####################oooooooooo####################",
"####################oooooooooo####################",
"####################XXXXXXXXXX####################",
"####################..........####################",
"####################          ####################",
"####################          ####################",
"##################################################",
"##################################################",
"##################################################",
"##################################################",
"##################################################",
"##################################################",
"##################################################"
};
