/* XPM */
static char *result[] = {
/* columns rows colors chars-per-pixel */
"50 50 74 1 ",
"  c #FFAC00",
". c #FFAD00",
"X c #FFAE00",
"o c #FFB200",
"O c #FFB300",
"+ c #FFBB00",
"@ c #FFBC00",
"# c #FFBD00",
"$ c #FFBE0A",
"% c #FFB71D",
"& c #FFBB1A",
"* c #FFC600",
"= c #FFC900",
"- c #FFCB00",
"; c #FFD000",
": c #FFD300",
"> c #FFD400",
", c #FFD600",
"< c gold",
"1 c #FFD403",
"2 c #FFD800",
"3 c #FFD900",
"4 c #FFDA00",
"5 c #FFDB00",
"6 c #FFD903",
"7 c #FFDD00",
"8 c #FFDF00",
"9 c #FFDA0A",
"0 c #FFDB1A",
"q c #FFDC1A",
"w c #FFDC1D",
"e c #FFDD1D",
"r c #FFE000",
"t c #FFE200",
"y c #FFE500",
"u c #FFE800",
"i c #FFE900",
"p c #FFED00",
"a c #FFF000",
"s c #FFF100",
"d c #FFD23A",
"f c #FFE13A",
"g c #FFC94F",
"h c #FFCA59",
"j c #FFCB5A",
"k c #FFE44F",
"l c #FFE659",
"z c #FFE65A",
"x c #FFE65B",
"c c #FFE75B",
"v c #FFDF6C",
"b c #FFE86C",
"n c #FFE2A4",
"m c #FFE2A5",
"M c #FFE3A6",
"N c #FFE3A9",
"B c #FFF1A4",
"V c #FFF1A5",
"C c #FFF1A6",
"Z c #FFF2A9",
"A c #FFE6B0",
"S c #FFF3B0",
"D c #FFEDC5",
"F c #FFF6C5",
"G c #FFF2C8",
"H c #FFF7C8",
"J c #FFF6E2",
"K c #FFF6E4",
"L c #FFFBE2",
"P c #FFFBE4",
"I c #FFFCF5",
"U c #FFFDF5",
"Y c white",
"T c None",
/* pixels */
"TTTTTTTTTTTTTTTTTTTTTTTTTTTTTTTTTTTTTTTTTTTTTTTTTT",
"TTTTTTTTTTTTTTTTTTTTTTTTTTTTTTTTTTTTTTTTTTTTTTTTTT",
"TTTTTTTTTTTTTTTTTTTTTTTTTTTTTTTTTTTTTTTTTTTTTTTTTT",
"TTTTTTTTTTTTTTTTTTTTTTTTTTTTTTTTTTTTTTTTTTTTTTTTTT",
"TTTTTTTTTTTTTTTTTTTTTTTTTTTTTTTTTTTTTTTTTTTTTTTTTT",
"TTTTTTTTTTTTTTTTTTTTTTTTTTTTTTTTTTTTTTTTTTTTTTTTTT",
"TTTTTTTTTTTTTTTTTTTTTTTTTTTTTTTTTTTTTTTTTTTTTTTTTT",
"TTTTTTTTTTTTTTTaaaaaaaaaaaaaaaaaaaaTTTTTTTTTTTTTTT",
"TTTTTTTTTTTTTTTaaaaaaaaaaaaaaaaaaaaTTTTTTTTTTTTTTT",
"TTTTTTTTTTTTTTTppppppppppppppppppppTTTTTTTTTTTTTTT",
"TTTTTTTTTTTTaap75555555555555555554222TTTTTTTTTTTT",
"TTTTTTTTTTTTaap52222222222222222222222TTTTTTTTTTTT",
"TTTTTTTTTTTTaap52222222222222222222222TTTTTTTTTTTT",
"TTTTTTTTTaairr8322bZZv########@*222222222TTTTTTTTT",
"TTTTTTTTaaau222222ZYYN........ @2222222222TTTTTTTT",
"TTTTTTTTaasu222<<<BYYn  ...... @2222222222TTTTTTTT",
"TTTTTTTTuuut229kzlFYYDhjg$####@=rr83222222TTTTTTTT",
"TTTTTTTT222222wLYYYYYYYYLe22222raap5222222TTTTTTTT",
"TTTTTTTT222222wPYYYYYYYYPw22222raap5222222TTTTTTTT",
"TTTTTTTT2222220GKJIYYULPHq22222raap5222222TTTTTTTT",
"TTTTTTTT2222221&%%AYYSwwq622222raap5222222TTTTTTTT",
"TTTTTTTT222222:o..mYYV222222222raap5222222TTTTTTTT",
"TTTTTTTT222222:OXXMYYC222222222raap5222222TTTTTTTT",
"TTTTTTTT222222:OXXdcxf222222222raap5222222TTTTTTTT",
"TTTTTTTT222222:OXX=2<2222222222raap5222222TTTTTTTT",
"TTTTTTTT222222:OXX=322222222222raap5222222TTTTTTTT",
"TTTTTTTT222222:OXX=322222222222raap5222222TTTTTTTT",
"TTTTTTTT222222:OXX=322222222222raap5222222TTTTTTTT",
"TTTTTTTT222222:OXX=322222222222raap5222222TTTTTTTT",
"TTTTTTTT222222:OXX=322222222222raap5222222TTTTTTTT",
"TTTTTTTT222222:OXX=322222222222raap5222222TTTTTTTT",
"TTTTTTTT222222:OXX=322222222222raap5222222TTTTTTTT",
"TTTTTTTT222222:OXX=32222222222<raap5222222TTTTTTTT",
"TTTTTTTT222222,-==7uuuuuuuuuuuuyrr8322*@##TTTTTTTT",
"TTTTTTTT2222222333usaaaaaaaaaasu<22222@ ..TTTTTTTT",
"TTTTTTTT2222222222usaaaaaaaaaasu222333#.XXTTTTTTTT",
"TTTTTTTTT222222222tuuuuuuuuuuuut22,-==+.XTTTTTTTTT",
"TTTTTTTTTTTT2222222222222222222222:OXXTTTTTTTTTTTT",
"TTTTTTTTTTTT2222222222222222222223:OXXTTTTTTTTTTTT",
"TTTTTTTTTTTT22<>::::::::::::::::::;OXXTTTTTTTTTTTT",
"TTTTTTTTTTTTTTTOOOOOOOOOOOOOOOOOOOOTTTTTTTTTTTTTTT",
"TTTTTTTTTTTTTTTXXXXXXXXXXXXXXXXXXXXTTTTTTTTTTTTTTT",
"TTTTTTTTTTTTTTTXXXXXXXXXXXXXXXXXXXXTTTTTTTTTTTTTTT",
"TTTTTTTTTTTTTTTTTTTTTTTTTTTTTTTTTTTTTTTTTTTTTTTTTT",
"TTTTTTTTTTTTTTTTTTTTTTTTTTTTTTTTTTTTTTTTTTTTTTTTTT",
"TTTTTTTTTTTTTTTTTTTTTTTTTTTTTTTTTTTTTTTTTTTTTTTTTT",
"TTTTTTTTTTTTTTTTTTTTTTTTTTTTTTTTTTTTTTTTTTTTTTTTTT",
"TTTTTTTTTTTTTTTTTTTTTTTTTTTTTTTTTTTTTTTTTTTTTTTTTT",
"TTTTTTTTTTTTTTTTTTTTTTTTTTTTTTTTTTTTTTTTTTTTTTTTTT",
"TTTTTTTTTTTTTTTTTTTTTTTTTTTTTTTTTTTTTTTTTTTTTTTTTT"
};
