/* XPM */
static char *result[] = {
/* columns rows colors chars-per-pixel */
"50 50 108 2 ",
"   c #010001",
".  c #060009",
"X  c #08000E",
"o  c #0C0C0C",
"O  c #0C0013",
"+  c #12011C",
"@  c #151514",
"#  c #181B16",
"$  c #1A151D",
"%  c #1B1C1A",
"&  c #18211E",
"*  c #160024",
"=  c #180126",
"-  c #1B002B",
";  c #1F1426",
":  c #1F0032",
">  c #201526",
",  c #22132C",
"<  c #261F2A",
"1  c #210134",
"2  c #260E35",
"3  c #280E37",
"4  c #24003A",
"5  c #2B0A3E",
"6  c #261033",
"7  c #1F2C27",
"8  c #1F2C28",
"9  c #232422",
"0  c #272827",
"q  c #212F2A",
"w  c #2B2A2C",
"e  c #283A33",
"r  c #3C3C3C",
"t  c #2A0043",
"y  c #2E004A",
"u  c #300A47",
"i  c #31004E",
"p  c #2E1040",
"a  c #360056",
"s  c #380854",
"d  c #370058",
"f  c #3D2F57",
"g  c #3D0162",
"h  c #400066",
"j  c #45006E",
"k  c #460071",
"l  c #490074",
"z  c #4E007D",
"x  c #344A42",
"c  c #464646",
"v  c #535353",
"b  c #4B4668",
"n  c #4D6F62",
"m  c #526F64",
"M  c #4E7162",
"N  c #587D6F",
"B  c #597E71",
"V  c gray40",
"C  c #606F69",
"Z  c #6D6E6D",
"A  c #716A75",
"S  c gray45",
"D  c gray47",
"F  c #530085",
"G  c #57008B",
"H  c #59008E",
"J  c #5D0095",
"K  c #5F0098",
"L  c #62009D",
"P  c #6500A1",
"I  c #6801A7",
"U  c #6B00AC",
"Y  c #6F00B2",
"T  c #7100B5",
"R  c #7500BB",
"E  c #7A00C3",
"W  c #7D00C9",
"Q  c #8000CD",
"!  c #6C9A89",
"~  c #73A492",
"^  c #8B8B8B",
"/  c #979797",
"(  c #989898",
")  c #84BBA7",
"_  c gray65",
"`  c #B5B5B5",
"'  c gray75",
"]  c #8AC4AF",
"[  c #8CC6B1",
"{  c #8DC8B3",
"}  c #91CEB8",
"|  c #99DAC3",
" . c #A8F0D6",
".. c #ACF5DA",
"X. c #B0FBDF",
"o. c #B4FFE4",
"O. c #BCFFE6",
"+. c #B9FFEA",
"@. c #C1C1C1",
"#. c #CECECE",
"$. c #D2D2D2",
"%. c #C0FFE9",
"&. c #D4FFEF",
"*. c #E0FFF5",
"=. c #E9FFF7",
"-. c #EFFFF9",
";. c #FEFFFF",
":. c None",
/* pixels */
":.:.:.:.:.:.:.:.:.:.:.:.:.:.:.:.:.:.:.:.:.:.:.:.:.:.:.:.:.:.:.:.:.:.:.:.:.:.:.:.:.:.:.:.:.:.:.:.:.:.",
":.:.:.:.:.:.:.:.:.:.:.:.:.:.:.:.:.:.:.:.:.:.:.:.:.:.:.:.:.:.:.:.:.:.:.:.:.:.:.:.:.:.:.:.:.:.:.:.:.:.",
":.:.:.:.:.:.:.:.:.:.:.:.:.:.:.:.:.:.:.:.:.:.:.:.:.:.:.:.:.:.:.:.:.:.:.:.:.:.:.:.:.:.:.:.:.:.:.:.:.:.",
":.:.:.:.:.:.:.:.:.:.:.:.:.:.:.:.:.:.:.:.:.:.:.:.:.:.:.:.:.:.:.:.:.:.:.:.:.:.:.:.:.:.:.:.:.:.:.:.:.:.",
":.:.:.:.:.:.:.:.:.:.:.:.:.:.:.:.:.:.:.:.:.:.:.:.:.:.:.:.:.:.:.:.:.:.:.:.:.:.:.:.:.:.:.:.:.:.:.:.:.:.",
":.:.:.:.:.:.:.:.:.:.:.:.:.:.:.:.:.:.                            :.:.:.:.:.:.:.:.:.:.:.:.:.:.:.:.:.:.",
":.:.:.:.:.:.:.:.:.:.:.:.:.:.:.:.:.:.    - : 1 : 1 : 1 1 : O     :.:.:.:.:.:.:.:.:.:.:.:.:.:.:.:.:.:.",
":.:.:.:.:.:.:.:.:.:.:.:.:.:.:.        O I E E E E E E E R 1         :.:.:.:.:.:.:.:.:.:.:.:.:.:.:.:.",
":.:.:.:.:.:.:.:.:.:.:.:.:.:.:.      O * Y W W W W W W W E t O .     :.:.:.:.:.:.:.:.:.:.:.:.:.:.:.:.",
":.:.:.:.:.:.:.:.:.:.:.:.:.        : I Y E E W W W E W W W Y U g         :.:.:.:.:.:.:.:.:.:.:.:.:.:.",
":.:.:.:.:.:.:.:.:.:.:.:.:.        4 E W W E E W W W W W W W Q k         :.:.:.:.:.:.:.:.:.:.:.:.:.:.",
":.:.:.:.:.:.:.:.:.:.:.            O t t t t t t k W W W W W W U F h .   :.:.:.:.:.:.:.:.:.:.:.:.:.:.",
":.:.:.:.:.:.:.:.:.:.:.                          t Q W W W W W W Q I X   :.:.:.:.:.:.:.:.:.:.:.:.:.:.",
":.:.:.:.:.:.:.:.:.:.7 n n n m m Z S Z Z m n n M b k z R W W W W W P .     :.:.:.:.:.:.:.:.:.:.:.:.:.",
":.:.:.:.:.:.:.:.:.  e ..o.o.o.*.;.;.;.;.%.o.o.+.~   + T W W E W W P .             :.:.:.:.:.:.:.:.:.",
":.:.:.:.:.:.:.:.:.  e ..o.o.o.&.-.-.-.=.O.o.....!   + T W W W W W P X   * - - - - :.:.:.:.:.:.:.:.:.",
":.:.:.:.:.:.:.:.:.  e ..o.o.o.o.o.o.o.o.o.o.| } B   + T W W W W W P X . J E E E J .   :.:.:.:.:.:.:.",
":.:.:.:.:.:.:.:.:.  e  .X.X.X.X.o.X.X.X.X.X.} { N   + T W W E W W P X   K W W W J     :.:.:.:.:.:.:.",
":.:.:.:.:.:.:.:.:.  q ] } } } } } } } } } } { { N   + T W W W W W P X . L W W Q K     :.:.:.:.:.:.:.",
":.:.:.:.:.r c :.    7 ) ] ] ] [ ] ] ] ] ] ] ] { N   + T W W W W W P X   K W W W J .   :.:.:.:.:.:.:.",
":.:.:.:.:.:.D _ v 9 & x x x x x x x x x x x x x f F F E W W E R Y G . . L Q W Q J .   :.:.:.:.:.:.:.",
":.:.:.:.:.:.V $.` ^ v @                         t W W W W W W T K F . . K W W W J     :.:.:.:.:.:.:.",
":.:.:.:.:.:.c ` #.@._ D r , * 1 i i i i i i i i z E W E W W W T L z . . L W W W J     :.:.:.:.:.:.:.",
":.:.:.:.:.:.:.V ( @.#.@._ A 0 5 L Q W W W W W W W W W W W W W T P z . . L W W W J .   :.:.:.:.:.:.:.",
":.:.:.:.:.:.:.:.:.S / ' #.^ w 9 u L E W W E W W W W W W W W W Y L z . . K W E E H .   :.:.:.:.:.:.:.",
":.:.:.:.:.:.:.:.:.:.:.c ^ v w # # > s L E W W W W W E W W W W Y L F . . L W Y P l     :.:.:.:.:.:.:.",
":.:.:.:.:.:.:.:.:.:.:.  o 0 w 1 6 % & > g E W W W W W W W W W T L z . . K Q Y P l     :.:.:.:.:.:.:.",
":.:.:.:.:.:.:.:.:.:.:.  . % 3 U U j 6 # 5 R W W E W W W W W W T P z . . K W Y P l .   :.:.:.:.:.:.:.",
":.:.:.:.:.:.:.:.:.:.:.  o h H T Q W J * F W W W W E W W W W W Y P z . . L W T L l .   :.:.:.:.:.:.:.",
":.:.:.:.:.:.:.:.:.:.:.  . z L I U R R Y E W W W W W W W W T Y U P z .   F Y I P l     :.:.:.:.:.:.:.",
":.:.:.:.:.:.:.:.:.:.:.  . z P L L I Q W W W E W W W W W W U K L L z . . z L L L k .   :.:.:.:.:.:.:.",
":.:.:.:.:.:.:.:.:.:.:.    a h F L P R R R T E W W W E W W U K L L z .   z L L P l     :.:.:.:.:.:.:.",
":.:.:.:.:.:.:.:.:.:.:.        d P L L L L L T W W W W W W U L L L z . . z P L P l .   :.:.:.:.:.:.:.",
":.:.:.:.:.:.:.:.:.:.:.        d P L L L L L Y E E E E R R U L L L z .   h F F F h     :.:.:.:.:.:.:.",
":.:.:.:.:.:.:.:.:.:.:.:.:.    d L L L L L L L P P P P P P L L L P z .   . X X X X :.:.:.:.:.:.:.:.:.",
":.:.:.:.:.:.:.:.:.:.:.:.:.    d L L L L K K K K K K K K K L L L L z .             :.:.:.:.:.:.:.:.:.",
":.:.:.:.:.:.:.:.:.:.:.:.:.    d P L L J 4 * = = = = * - - l L L P z .   :.:.:.:.:.:.:.:.:.:.:.:.:.:.",
":.:.:.:.:.:.:.:.:.:.:.:.:.    d P L L H O                 j L L P z .   :.:.:.:.:.:.:.:.:.:.:.:.:.:.",
":.:.:.:.:.:.:.:.:.:.:.:.:.    d P L L G O     :.:.:.      k P L L z .   :.:.:.:.:.:.:.:.:.:.:.:.:.:.",
":.:.:.:.:.:.:.:.:.:.:.:.:.    d P L P J +   :.:.:.:.:.    l P P P F .   :.:.:.:.:.:.:.:.:.:.:.:.:.:.",
":.:.:.:.:.:.:.:.:.:.:.:.:.    4 k j j g O   :.:.:.:.:.    i j j j d .   :.:.:.:.:.:.:.:.:.:.:.:.:.:.",
":.:.:.:.:.:.:.:.:.:.:.:.:.                  :.:.:.:.:.                  :.:.:.:.:.:.:.:.:.:.:.:.:.:.",
":.:.:.:.:.:.:.:.:.:.:.:.:.                  :.:.:.:.:.                  :.:.:.:.:.:.:.:.:.:.:.:.:.:.",
":.:.:.:.:.:.:.:.:.:.:.:.:.:.:.:.:.:.:.:.:.:.:.:.:.:.:.:.:.:.:.:.:.:.:.:.:.:.:.:.:.:.:.:.:.:.:.:.:.:.",
":.:.:.:.:.:.:.:.:.:.:.:.:.:.:.:.:.:.:.:.:.:.:.:.:.:.:.:.:.:.:.:.:.:.:.:.:.:.:.:.:.:.:.:.:.:.:.:.:.:.",
":.:.:.:.:.:.:.:.:.:.:.:.:.:.:.:.:.:.:.:.:.:.:.:.:.:.:.:.:.:.:.:.:.:.:.:.:.:.:.:.:.:.:.:.:.:.:.:.:.:.",
":.:.:.:.:.:.:.:.:.:.:.:.:.:.:.:.:.:.:.:.:.:.:.:.:.:.:.:.:.:.:.:.:.:.:.:.:.:.:.:.:.:.:.:.:.:.:.:.:.:.",
":.:.:.:.:.:.:.:.:.:.:.:.:.:.:.:.:.:.:.:.:.:.:.:.:.:.:.:.:.:.:.:.:.:.:.:.:.:.:.:.:.:.:.:.:.:.:.:.:.:.",
":.:.:.:.:.:.:.:.:.:.:.:.:.:.:.:.:.:.:.:.:.:.:.:.:.:.:.:.:.:.:.:.:.:.:.:.:.:.:.:.:.:.:.:.:.:.:.:.:.:.",
":.:.:.:.:.:.:.:.:.:.:.:.:.:.:.:.:.:.:.:.:.:.:.:.:.:.:.:.:.:.:.:.:.:.:.:.:.:.:.:.:.:.:.:.:.:.:.:.:.:."
};
