/* XPM */
static char *result[] = {
/* columns rows colors chars-per-pixel */
"50 50 121 2 ",
"   c #010001",
".  c #060009",
"X  c #08000E",
"o  c #0E100D",
"O  c #0C0013",
"+  c #120B16",
"@  c #11001B",
"#  c #141315",
"$  c #1B141F",
"%  c #1B1C1A",
"&  c #17201D",
"*  c #1F201E",
"=  c #160024",
"-  c #180027",
";  c #1B002B",
":  c #1F0032",
">  c #210E2D",
",  c #221E25",
"<  c #21132A",
"1  c #200033",
"2  c #260D35",
"3  c #25003B",
"4  c #270939",
"5  c #251032",
"6  c #1F2C27",
"7  c #1F2C28",
"8  c #232522",
"9  c #212F2A",
"0  c #2C2C2C",
"q  c #2A3430",
"w  c #283A33",
"e  c #3B3D39",
"r  c #2A0043",
"t  c #2D0048",
"y  c #31004E",
"u  c #350155",
"i  c #370058",
"p  c #3D0062",
"a  c #4E315F",
"s  c #400166",
"d  c #44006E",
"f  c #460071",
"g  c #490074",
"h  c #4E007D",
"j  c #593E69",
"k  c #562673",
"l  c #5A2D75",
"z  c #603878",
"x  c #344A42",
"c  c #3B4A44",
"v  c gray28",
"b  c #535353",
"n  c #4B4668",
"m  c #634078",
"M  c #725D7F",
"N  c #4D6F62",
"B  c #526F64",
"V  c #4E7162",
"C  c #597E71",
"Z  c gray40",
"A  c #606F69",
"S  c #6E6F6F",
"D  c #716678",
"F  c #7A727F",
"G  c #70857D",
"H  c #530084",
"J  c #57008B",
"K  c #59008E",
"L  c #5D0095",
"P  c #5F0098",
"I  c #611A8B",
"U  c #62009D",
"Y  c #681E94",
"T  c #68159A",
"R  c #682193",
"E  c #6500A1",
"W  c #6800A7",
"Q  c #6C0EA4",
"!  c #6B00AB",
"~  c #6F00B2",
"^  c #7100B5",
"/  c #7309B2",
"(  c #7500BB",
")  c #765B86",
"_  c #7A00C4",
"`  c #7D00C9",
"'  c #867E8B",
"]  c #8100CE",
"[  c #6F8A81",
"{  c #6C9A89",
"}  c #73A492",
"|  c #7AAE9B",
" . c #7FB4A1",
".. c #959796",
"X. c #84BAA7",
"o. c #ADAEAD",
"O. c #AEB0AD",
"+. c #B2B3B2",
"@. c #B7B8B6",
"#. c #B9BBB8",
"$. c #8AC4AF",
"%. c #8CC6B1",
"&. c #8EC9B4",
"*. c #91CEB8",
"=. c #92D0B9",
"-. c #99DAC3",
";. c #A8F0D6",
":. c #ACF5DA",
">. c #B0FBDF",
",. c #B4FFE4",
"<. c #BCFFE6",
"1. c #B9FFEA",
"2. c #C0C0C0",
"3. c #CDCDCD",
"4. c #C0FFE9",
"5. c #D4FFEF",
"6. c #E0FFF5",
"7. c #E9FFF7",
"8. c #EFFFF9",
"9. c #FEFFFF",
"0. c None",
/* pixels */
"0.0.0.0.0.0.0.0.0.0.0.0.0.0.0.0.0.0.0.0.0.0.0.0.0.0.0.0.0.0.0.0.0.0.0.0.0.0.0.0.0.0.0.0.0.0.0.0.0.0.",
"0.0.0.0.0.0.0.0.0.0.0.0.0.0.0.0.0.0.0.0.0.0.0.0.0.0.0.0.0.0.0.0.0.0.0.0.0.0.0.0.0.0.0.0.0.0.0.0.0.0.",
"0.0.0.0.0.0.0.0.0.0.0.0.0.0.0.0.0.0.0.0.0.0.0.0.0.0.0.0.0.0.0.0.0.0.0.0.0.0.0.0.0.0.0.0.0.0.0.0.0.0.",
"0.0.0.0.0.0.0.0.0.0.0.0.0.0.0.0.0.0.0.0.0.0.0.0.0.0.0.0.0.0.0.0.0.0.0.0.0.0.0.0.0.0.0.0.0.0.0.0.0.0.",
"0.0.0.0.0.0.0.0.0.0.0.0.0.0.0.0.0.0.0.0.0.0.0.0.0.0.0.0.0.0.0.0.0.0.0.0.0.0.0.0.0.0.0.0.0.0.0.0.0.0.",
"0.0.0.0.0.0.0.0.0.0.0.0.0.0.0.0.0.0.                            0.0.0.0.0.0.0.0.0.0.0.0.0.0.0.0.0.0.",
"0.0.0.0.0.0.0.0.0.0.0.0.0.0.0.0.0.0.    ; : 1 : 1 1 : 1 1 O     0.0.0.0.0.0.0.0.0.0.0.0.0.0.0.0.0.0.",
"0.0.0.0.0.0.0.0.0.0.0.0.0.0.0.        O W _ _ _ _ _ _ _ ( 1         0.0.0.0.0.0.0.0.0.0.0.0.0.0.0.0.",
"0.0.0.0.0.0.0.0.0.0.0.0.0.0.0.    . O = ! ` _ ` _ ` ` ` _ t X .     0.0.0.0.0.0.0.0.0.0.0.0.0.0.0.0.",
"0.0.0.0.0.0.0.0.0.0.0.0.0.        : W ! _ ` ` ` ` ` ` _ ` ~ ! p         0.0.0.0.0.0.0.0.0.0.0.0.0.0.",
"0.0.0.0.0.0.0.0.0.0.0.0.0.        3 _ ` ` ` _ ` ` ` ` ` ` ` ] f         0.0.0.0.0.0.0.0.0.0.0.0.0.0.",
"0.0.0.0.0.0.0.0.0.0.0.            O r r r r r r f ` ` ` ` ` ` ! H s .   0.0.0.0.0.0.0.0.0.0.0.0.0.0.",
"0.0.0.0.0.0.0.0.0.0.0.                          3 ] ] ] ` ` ` ` ] W X   0.0.0.0.0.0.0.0.0.0.0.0.0.0.",
"0.0.0.0.0.0.0.0.0.0.6 N N N B B S S S S B N N V n d h ( ` ` ` ` ` E .     0.0.0.0.0.0.0.0.0.0.0.0.0.",
"0.0.0.0.0.0.0.0.0.  w :.,.,.,.6.9.9.9.9.4.,.<.<.}   @ ^ _ ] ( _ ` E .             0.0.0.0.0.0.0.0.0.",
"0.0.0.0.0.0.0.0.0.  w :.,.,.,.5.8.8.8.7.<.,.:.>.{   + l z n a I ` E X   = ; ; ; ; 0.0.0.0.0.0.0.0.0.",
"0.0.0.0.0.0.0.0.0.  w :.,.,.,.,.,.,.<.,.,.,.-.&.C   b #.3.O.m / ` W X . L ( _ _ K .   0.0.0.0.0.0.0.",
"0.0.0.0.0.0.0.0.0.  w ;.>.>.>.>.>.>.>.>.>.>.-.%.G v #.3.+.) / ` ` E X . P ` ` ] L .   0.0.0.0.0.0.0.",
"0.0.0.0.0.0.0.0.0.  9 %.=.*.*.*.*.*.*.*.=.=.&.X.G O.3.o.) Q ` ` ` E . . P ] ` ` L .   0.0.0.0.0.0.0.",
"0.0.0.0.0.0.0.0.0.  6 X.$.$.$.$.$.$.$.$.$.|  .G o.3.O.D Y ` ` ` _ E . . P ` ` ` L .   0.0.0.0.0.0.0.",
"0.0.0.0.0.0.0.0.0.0.& x x x x x x x x x x q c ..3.O.) Y _ ` ` ( ~ J . . E ` ` ` K .   0.0.0.0.0.0.0.",
"0.0.0.0.0.0.0.0.0.0.0.                    8 0 Z O...R _ ` ` ` ~ P H . . P ] ` ` L     0.0.0.0.0.0.0.",
"0.0.0.0.0.0.0.0.0.0.0.  . ; 3 t y y y y u 5 0 0 e k _ ` ` ` ` ^ U h . . P ` ` ` L     0.0.0.0.0.0.0.",
"0.0.0.0.0.0.0.0.0.0.0.  . h E ^ ` ` ` ` _ y o 8 6 g ` ` ` ` ` ^ E h . . E ` ` ` L .   0.0.0.0.0.0.0.",
"0.0.0.0.0.0.0.0.0.0.0.  . h U ^ ` ` ] _ h $ % 4 p _ ` ` ` ` ` ^ E h . . P ` _ _ K     0.0.0.0.0.0.0.",
"0.0.0.0.0.0.0.0.0.0.0.  . h E ^ ` ` Q h < % 4 ! ` _ ` ` _ ` ` ^ U h . . P ` ~ E g .   0.0.0.0.0.0.0.",
"0.0.0.0.0.0.0.0.0.0.0.  . h E ^ ` ` u # 6 2 P ` _ ` ` _ ` ` ` ^ E h . . U ` ^ E g .   0.0.0.0.0.0.0.",
"0.0.0.0.0.0.0.0.0.0.0.  . h U ^ ` ` U 2 > U ` ` ` ` ` ` ` ` ` ^ P h . . P ` ~ E g     0.0.0.0.0.0.0.",
"0.0.0.0.0.0.0.0.0.0.0.  . H E ^ ` ` ` E ! _ ` ` _ ` ` ` ` ` ` ^ E h . . U ` ^ U g     0.0.0.0.0.0.0.",
"0.0.0.0.0.0.0.0.0.0.0.  . h U W ! ( ` ` ` ` ` ` ` ` ` ` ` ^ ~ W E h . . H ~ W E g .   0.0.0.0.0.0.0.",
"0.0.0.0.0.0.0.0.0.0.0.  . h E U U W ` ` _ ` ` _ ` ` ` _ _ W P U U h .   h U U U g     0.0.0.0.0.0.0.",
"0.0.0.0.0.0.0.0.0.0.0.  . u s H U E ( ( ( ( _ ` ` ` ` ` ` ! U U U h . . h U U U g .   0.0.0.0.0.0.0.",
"0.0.0.0.0.0.0.0.0.0.0.        i E U U U U U ^ ` ` ` ` _ ` W U U U h . . h E U E g .   0.0.0.0.0.0.0.",
"0.0.0.0.0.0.0.0.0.0.0.        i U U U U U U ~ _ _ _ _ _ _ W U U U h . . s H H H p .   0.0.0.0.0.0.0.",
"0.0.0.0.0.0.0.0.0.0.0.0.0.    i E U U U U U U E E U U E U U U U U h .   . X X X X 0.0.0.0.0.0.0.0.0.",
"0.0.0.0.0.0.0.0.0.0.0.0.0.    i U U U U P P P P P P P P P U U U U h .             0.0.0.0.0.0.0.0.0.",
"0.0.0.0.0.0.0.0.0.0.0.0.0.    i U U U L 3 = - - - - = ; ; g E U E h .   0.0.0.0.0.0.0.0.0.0.0.0.0.0.",
"0.0.0.0.0.0.0.0.0.0.0.0.0.    i E U U K O                 d U U E h .   0.0.0.0.0.0.0.0.0.0.0.0.0.0.",
"0.0.0.0.0.0.0.0.0.0.0.0.0.    i E U U J O     0.0.0.      d E U U h .   0.0.0.0.0.0.0.0.0.0.0.0.0.0.",
"0.0.0.0.0.0.0.0.0.0.0.0.0.    i E U E L @   0.0.0.0.0.  . d E E E H .   0.0.0.0.0.0.0.0.0.0.0.0.0.0.",
"0.0.0.0.0.0.0.0.0.0.0.0.0.    3 f d d p O   0.0.0.0.0.    y d d d i .   0.0.0.0.0.0.0.0.0.0.0.0.0.0.",
"0.0.0.0.0.0.0.0.0.0.0.0.0.                  0.0.0.0.0.                  0.0.0.0.0.0.0.0.0.0.0.0.0.0.",
"0.0.0.0.0.0.0.0.0.0.0.0.0.                  0.0.0.0.0.                  0.0.0.0.0.0.0.0.0.0.0.0.0.0.",
"0.0.0.0.0.0.0.0.0.0.0.0.0.0.0.0.0.0.0.0.0.0.0.0.0.0.0.0.0.0.0.0.0.0.0.0.0.0.0.0.0.0.0.0.0.0.0.0.0.0.",
"0.0.0.0.0.0.0.0.0.0.0.0.0.0.0.0.0.0.0.0.0.0.0.0.0.0.0.0.0.0.0.0.0.0.0.0.0.0.0.0.0.0.0.0.0.0.0.0.0.0.",
"0.0.0.0.0.0.0.0.0.0.0.0.0.0.0.0.0.0.0.0.0.0.0.0.0.0.0.0.0.0.0.0.0.0.0.0.0.0.0.0.0.0.0.0.0.0.0.0.0.0.",
"0.0.0.0.0.0.0.0.0.0.0.0.0.0.0.0.0.0.0.0.0.0.0.0.0.0.0.0.0.0.0.0.0.0.0.0.0.0.0.0.0.0.0.0.0.0.0.0.0.0.",
"0.0.0.0.0.0.0.0.0.0.0.0.0.0.0.0.0.0.0.0.0.0.0.0.0.0.0.0.0.0.0.0.0.0.0.0.0.0.0.0.0.0.0.0.0.0.0.0.0.0.",
"0.0.0.0.0.0.0.0.0.0.0.0.0.0.0.0.0.0.0.0.0.0.0.0.0.0.0.0.0.0.0.0.0.0.0.0.0.0.0.0.0.0.0.0.0.0.0.0.0.0.",
"0.0.0.0.0.0.0.0.0.0.0.0.0.0.0.0.0.0.0.0.0.0.0.0.0.0.0.0.0.0.0.0.0.0.0.0.0.0.0.0.0.0.0.0.0.0.0.0.0.0."
};
