/* XPM */
static char *result[] = {
/* columns rows colors chars-per-pixel */
"50 50 109 2 ",
"   c #010001",
".  c #060009",
"X  c #08000E",
"o  c #0C0013",
"O  c #120F14",
"+  c #12001C",
"@  c #151714",
"#  c #17131A",
"$  c #1B1D1B",
"%  c #17201D",
"&  c #1F201E",
"*  c #160024",
"=  c #180027",
"-  c #1B002B",
";  c #1D0829",
":  c #1E1424",
">  c #1F0032",
",  c #221E24",
"<  c #25182C",
"1  c #200133",
"2  c #250C33",
"3  c #25003B",
"4  c #290D3A",
"5  c #251131",
"6  c #2B103A",
"7  c #1F2C27",
"8  c #1F2C28",
"9  c #222222",
"0  c #212F2A",
"q  c #2D2F2C",
"w  c #283A33",
"e  c #343334",
"r  c #2A0044",
"t  c #2E004A",
"y  c #31004E",
"u  c #360057",
"i  c #360B50",
"p  c #370059",
"a  c #390259",
"s  c #3B0A59",
"d  c #3A1352",
"f  c #3D2F57",
"g  c #3D0062",
"h  c #400066",
"j  c #44006D",
"k  c #460071",
"l  c #490074",
"z  c #4E007D",
"x  c #344A42",
"c  c #444444",
"v  c #474846",
"b  c gray30",
"n  c #5D5D5D",
"m  c #4B4668",
"M  c #5C4B66",
"N  c #4D6F62",
"B  c #526F64",
"V  c #4E7162",
"C  c #587D6F",
"Z  c #597E71",
"A  c #606F69",
"S  c #6E6E6E",
"D  c #74647E",
"F  c gray46",
"G  c #530185",
"H  c #57028A",
"J  c #59008E",
"K  c #5D0095",
"L  c #5F0198",
"P  c #62009D",
"I  c #6400A1",
"U  c #6800A7",
"Y  c #6B00AB",
"T  c #6F00B2",
"R  c #7100B5",
"E  c #7500BB",
"W  c #7A00C3",
"Q  c #7D00C9",
"!  c #8100CE",
"~  c #6C9A89",
"^  c #73A492",
"/  c #808080",
"(  c #8D8D8D",
")  c #949494",
"_  c #9F9F9F",
"`  c #84BBA7",
"'  c #AAAAAA",
"]  c #B2B2B2",
"[  c #BCBDBC",
"{  c #8AC4AF",
"}  c #8CC6B1",
"|  c #8DC8B3",
" . c #91CEB8",
".. c #99DAC3",
"X. c #A8F0D6",
"o. c #ACF5DA",
"O. c #B0FBDF",
"+. c #B4FFE4",
"@. c #BCFFE6",
"#. c #B9FFEA",
"$. c #C4C4C4",
"%. c #CCCCCC",
"&. c #C0FFE9",
"*. c #D4FFEF",
"=. c #E0FFF5",
"-. c #E9FFF7",
";. c #EFFFF9",
":. c #FEFFFF",
">. c None",
/* pixels */
">.>.>.>.>.>.>.>.>.>.>.>.>.>.>.>.>.>.>.>.>.>.>.>.>.>.>.>.>.>.>.>.>.>.>.>.>.>.>.>.>.>.>.>.>.>.>.>.>.>.",
">.>.>.>.>.>.>.>.>.>.>.>.>.>.>.>.>.>.>.>.>.>.>.>.>.>.>.>.>.>.>.>.>.>.>.>.>.>.>.>.>.>.>.>.>.>.>.>.>.>.",
">.>.>.>.>.>.>.>.>.>.>.>.>.>.>.>.>.>.>.>.>.>.>.>.>.>.>.>.>.>.>.>.>.>.>.>.>.>.>.>.>.>.>.>.>.>.>.>.>.>.",
">.>.>.>.>.>.>.>.>.>.>.>.>.>.>.>.>.>.>.>.>.>.>.>.>.>.>.>.>.>.>.>.>.>.>.>.>.>.>.>.>.>.>.>.>.>.>.>.>.>.",
">.>.>.>.>.>.>.>.>.>.>.>.>.>.>.>.>.>.>.>.>.>.>.>.>.>.>.>.>.>.>.>.>.>.>.>.>.>.>.>.>.>.>.>.>.>.>.>.>.>.",
">.>.>.>.>.>.>.>.>.>.>.>.>.>.>.>.>.>.                            >.>.>.>.>.>.>.>.>.>.>.>.>.>.>.>.>.>.",
">.>.>.>.>.>.>.>.>.>.>.>.>.>.>.>.>.>.    - 1 1 > 1 1 > 1 1 o     >.>.>.>.>.>.>.>.>.>.>.>.>.>.>.>.>.>.",
">.>.>.>.>.>.>.>.>.>.>.>.>.>.>.        o U W W W W W W W E 1         >.>.>.>.>.>.>.>.>.>.>.>.>.>.>.>.",
">.>.>.>.>.>.>.>.>.>.>.>.>.>.>.      o * Y Q Q Q Q W W Q W t X .     >.>.>.>.>.>.>.>.>.>.>.>.>.>.>.>.",
">.>.>.>.>.>.>.>.>.>.>.>.>.        > Y Y W Q Q Q Q Q Q Q Q R Y g         >.>.>.>.>.>.>.>.>.>.>.>.>.>.",
">.>.>.>.>.>.>.>.>.>.>.>.>.        3 W Q Q Q W W Q Q Q Q Q Q ! k         >.>.>.>.>.>.>.>.>.>.>.>.>.>.",
">.>.>.>.>.>.>.>.>.>.>.            o r r r r r r k Q Q Q Q Q Q Y G j .   >.>.>.>.>.>.>.>.>.>.>.>.>.>.",
">.>.>.>.>.>.>.>.>.>.>.                          t Q ! Q Q Q Q Q ! U .   >.>.>.>.>.>.>.>.>.>.>.>.>.>.",
">.>.>.>.>.>.>.>.>.>.7 N N N B B S S S S B N N V m k z E Q Q Q Q Q I X     >.>.>.>.>.>.>.>.>.>.>.>.>.",
">.>.>.>.>.>.>.>.>.  w o.+.+.+.=.:.:.:.:.&.+.+.#.^   + R Q Q Q W Q I .             >.>.>.>.>.>.>.>.>.",
">.>.>.>.>.>.>.>.>.  w o.+.+.+.*.;.;.;.-.@.+.o.o.~   + R Q Q Q Q ! I .   * - - - - >.>.>.>.>.>.>.>.>.",
">.>.>.>.>.>.>.>.>.  w o.+.+.+.+.+.@.+.+.+.+...| Z   + R Q Q Q Q Q U . . K W W W J     >.>.>.>.>.>.>.",
">.>.>.>.>.>.>.>.>.  w X.O.O.O.O.O.O.O.O.O.O...{ C   + R Q Q Q Q Q I . . L Q Q Q K .   >.>.>.>.>.>.>.",
">.>.>.>.>.>.>.>.>.  0 }  . . . . . . . . . .| } C   + R Q Q Q Q Q I . . L Q Q ! L     >.>.>.>.>.>.>.",
">.>.>.>.>.>.>.>.>.  7 ` { { { { { { { { { { { | C   + R Q W Q Q Q I . . P Q Q Q L .   >.>.>.>.>.>.>.",
">.>.>.>.>.>.>.>.>.>.% x x x x x x x x x x x x x f z H E Q Q Q E Y H . . P ! Q ! K     >.>.>.>.>.>.>.",
">.>.>.>.>.>.>.>.>.>.>.                          t Q Q Q Q Q Q R I z . . L Q Q Q L .   >.>.>.>.>.>.>.",
">.>.>.>.>.>.>.>.>.>.>.    1 r r y y y y y y y y z W Q Q Q Q Q R P z . . L Q Q Q K .   >.>.>.>.>.>.>.",
">.>.>.>.>.>.>.>.>.>.>.  . z P R Q Q Q Q Q Q Q Q Q Q Q Q W Q Q R I z . . P ! Q Q K     >.>.>.>.>.>.>.",
">.>.>.>.>.>.>.>.>.>.>.  . z P R Q Q Q Q Q Q W Q Q Q Q Q Q W Q R P z . . L Q W W J .   >.>.>.>.>.>.>.",
">.>.>.>.>.>.>.>.>.>.>.  . z I R Q Q Q W W Q Q Q W Q Q Q Q Q Q R I z . . P Q T I l     >.>.>.>.>.>.>.",
">.>.>.>.>.>.>.>.>.>.>.  . z I R Q Q Y y h Q Q Q Q Q Q W Q Q Q R P z .   L ! T I l     >.>.>.>.>.>.>.",
">.>.>.>.>.>.>.>.>.>.>.  . z P R Q L 2 $ $ G Q Q Q Q Q Q Q Q Q R P G . . L Q T I l .   >.>.>.>.>.>.>.",
">.>.>.>.>.>.>.>.>.>.>.  . G L Y H < & < 1 z Q Q Q Q Q Q Q Q Q R P z . . P Q R P l .   >.>.>.>.>.>.>.",
">.>.>.>.>.>.>.>.>.>.>.  . k s 2 : & 5 G E W Q Q Q Q W Q Q T T U I z . . G T U I l     >.>.>.>.>.>.>.",
">.>.>.>.>.>.>.>.>.>.>.  . i 7 q @ ; L Q Q Q Q Q Q Q Q Q Q U L I P z . . z P P P l .   >.>.>.>.>.>.>.",
">.>.>.>.>.>.>.>.>.>.>.  O M S e q 6 U E E R W Q W Q Q Q W Y P P P z .   z P P P l     >.>.>.>.>.>.>.",
">.>.>.>.>.>.>.>.>.>.>.$ n ' $.( e 9 p P P P R Q Q Q Q Q Q Y P P P z . . z I P I l     >.>.>.>.>.>.>.",
">.>.>.>.>.>.>.>.>.>.c F ] %.[ D d 6 z P P P R W W E W W E Y P P P z .   h G G G h .   >.>.>.>.>.>.>.",
">.>.>.>.>.>.>.>.>.n ) [ %.' v s K H P P P P P P P P P I P P P P I z .   . X X X X >.>.>.>.>.>.>.>.>.",
">.>.>.>.>.>.>.>./ ] %.%.' e   a I P P P L L P L P L K P L P P P P z .             >.>.>.>.>.>.>.>.>.",
">.>.>.>.>.>.>.c ) ' $.) >.    u I P P K 3 * = = = = = = - z P P I z .   >.>.>.>.>.>.>.>.>.>.>.>.>.>.",
">.>.>.>.>.>.>.>.>.c b >.>.    u P P P J o                 j I P I z .   >.>.>.>.>.>.>.>.>.>.>.>.>.>.",
">.>.>.>.>.>.>.>.>.>.>.>.>.    u I P P J o     >.>.>.      j I P P z .   >.>.>.>.>.>.>.>.>.>.>.>.>.>.",
">.>.>.>.>.>.>.>.>.>.>.>.>.    p I I I J +   >.>.>.>.>.    k I I I G .   >.>.>.>.>.>.>.>.>.>.>.>.>.>.",
">.>.>.>.>.>.>.>.>.>.>.>.>.    3 k j j g o   >.>.>.>.>.    y j j j u .   >.>.>.>.>.>.>.>.>.>.>.>.>.>.",
">.>.>.>.>.>.>.>.>.>.>.>.>.                  >.>.>.>.>.                  >.>.>.>.>.>.>.>.>.>.>.>.>.>.",
">.>.>.>.>.>.>.>.>.>.>.>.>.                  >.>.>.>.>.                  >.>.>.>.>.>.>.>.>.>.>.>.>.>.",
">.>.>.>.>.>.>.>.>.>.>.>.>.>.>.>.>.>.>.>.>.>.>.>.>.>.>.>.>.>.>.>.>.>.>.>.>.>.>.>.>.>.>.>.>.>.>.>.>.>.",
">.>.>.>.>.>.>.>.>.>.>.>.>.>.>.>.>.>.>.>.>.>.>.>.>.>.>.>.>.>.>.>.>.>.>.>.>.>.>.>.>.>.>.>.>.>.>.>.>.>.",
">.>.>.>.>.>.>.>.>.>.>.>.>.>.>.>.>.>.>.>.>.>.>.>.>.>.>.>.>.>.>.>.>.>.>.>.>.>.>.>.>.>.>.>.>.>.>.>.>.>.",
">.>.>.>.>.>.>.>.>.>.>.>.>.>.>.>.>.>.>.>.>.>.>.>.>.>.>.>.>.>.>.>.>.>.>.>.>.>.>.>.>.>.>.>.>.>.>.>.>.>.",
">.>.>.>.>.>.>.>.>.>.>.>.>.>.>.>.>.>.>.>.>.>.>.>.>.>.>.>.>.>.>.>.>.>.>.>.>.>.>.>.>.>.>.>.>.>.>.>.>.>.",
">.>.>.>.>.>.>.>.>.>.>.>.>.>.>.>.>.>.>.>.>.>.>.>.>.>.>.>.>.>.>.>.>.>.>.>.>.>.>.>.>.>.>.>.>.>.>.>.>.>.",
">.>.>.>.>.>.>.>.>.>.>.>.>.>.>.>.>.>.>.>.>.>.>.>.>.>.>.>.>.>.>.>.>.>.>.>.>.>.>.>.>.>.>.>.>.>.>.>.>.>."
};
