/* XPM */
static char *result[] = {
/* columns rows colors chars-per-pixel */
"50 50 121 2 ",
"   c #000001",
".  c #060009",
"X  c #08000E",
"o  c #0C0E0C",
"O  c #0C0013",
"+  c #12001C",
"@  c #121411",
"#  c #1A161D",
"$  c #1C1E1C",
"%  c #17201D",
"&  c #1E201D",
"*  c #160024",
"=  c #180027",
"-  c #1B002B",
";  c #1F1D20",
":  c #1F0032",
">  c #210A2E",
",  c #231C27",
"<  c #23182A",
"1  c #200033",
"2  c #25003B",
"3  c #270C38",
"4  c #1F2C27",
"5  c #1F2C28",
"6  c #29262B",
"7  c #212F2A",
"8  c #2E2F2E",
"9  c #283A33",
"0  c gray24",
"q  c #2B0144",
"w  c #2E004A",
"e  c #300C46",
"r  c #31004E",
"t  c #340A4E",
"y  c #360156",
"u  c #370058",
"i  c #390558",
"p  c #3D085D",
"a  c #3D2F57",
"s  c #3D0062",
"d  c #400266",
"f  c #44006D",
"g  c #470A6C",
"h  c #4D1F69",
"j  c #460071",
"k  c #490174",
"l  c #4E007D",
"z  c #573C68",
"x  c #552473",
"c  c #5B3671",
"v  c #344A42",
"b  c #4A4250",
"n  c #514857",
"m  c gray37",
"M  c #4B4668",
"N  c #5F4F69",
"B  c #695177",
"V  c #6F577E",
"C  c #4D6F62",
"Z  c #526F64",
"A  c #4E7162",
"S  c #587D6F",
"D  c #597E71",
"F  c #606F69",
"G  c #6E6F6F",
"H  c #530085",
"J  c #57008B",
"K  c #59008E",
"L  c #5A1086",
"P  c #5B1288",
"I  c #5D0194",
"U  c #5D0890",
"Y  c #5F0098",
"T  c #641F8E",
"R  c #62009D",
"E  c #68139B",
"W  c #612B81",
"Q  c #6D3A8C",
"!  c #692A90",
"~  c #6500A1",
"^  c #6800A7",
"/  c #6C00AD",
"(  c #6F00B2",
")  c #7100B5",
"_  c #7500BC",
"`  c #785E87",
"'  c #7C7182",
"]  c #7A00C4",
"[  c #7E00C9",
"{  c #8100CE",
"}  c #6C9A89",
"|  c #73A492",
" . c #8E8B90",
".. c #9A9B9A",
"X. c #9A8EA2",
"o. c #84BBA7",
"O. c #A7A3A9",
"+. c #ADAEAD",
"@. c #BABABB",
"#. c #8AC4AF",
"$. c #8CC6B1",
"%. c #8DC8B3",
"&. c #91CEB8",
"*. c #BEC0BD",
"=. c #99DAC3",
"-. c #A8F0D6",
";. c #ACF5DA",
":. c #B0FBDF",
">. c #B4FFE4",
",. c #BCFFE6",
"<. c #B9FFEA",
"1. c #C3C4C3",
"2. c #CBCCCA",
"3. c #CFD0CE",
"4. c #C0FFE9",
"5. c #D4FFEF",
"6. c #E0FFF5",
"7. c #E9FFF7",
"8. c #EFFFF9",
"9. c #FEFFFF",
"0. c None",
/* pixels */
"0.0.0.0.0.0.0.0.0.0.0.0.0.0.0.0.0.0.0.0.0.0.0.0.0.0.0.0.0.0.0.0.0.0.0.0.0.0.0.0.0.0.0.0.0.0.0.0.0.0.",
"0.0.0.0.0.0.0.0.0.0.0.0.0.0.0.0.0.0.0.0.0.0.0.0.0.0.0.0.0.0.0.0.0.0.0.0.0.0.0.0.0.0.0.0.0.0.0.0.0.0.",
"0.0.0.0.0.0.0.0.0.0.0.0.0.0.0.0.0.0.0.0.0.0.0.0.0.0.0.0.0.0.0.0.0.0.0.0.0.0.0.0.0.0.0.0.0.0.0.0.0.0.",
"0.0.0.0.0.0.0.0.0.0.0.0.0.0.0.0.0.0.0.0.0.0.0.0.0.0.0.0.0.0.0.0.0.0.0.0.0.0.0.0.0.0.0.0.0.0.0.0.0.0.",
"0.0.0.0.0.0.0.0.0.0.0.0.0.0.0.0.0.0.0.0.0.0.0.0.0.0.0.0.0.0.0.0.0.0.0.0.0.0.0.0.0.0.0.0.0.0.0.0.0.0.",
"0.0.0.0.0.0.0.0.0.0.0.0.0.0.0.0.0.0.                            0.0.0.0.0.0.0.0.0.0.0.0.0.0.0.0.0.0.",
"0.0.0.0.0.0.0.0.0.0.0.0.0.0.0.0.0.0.    - : 1 : 1 1 : 1 1 O     0.0.0.0.0.0.0.0.0.0.0.0.0.0.0.0.0.0.",
"0.0.0.0.0.0.0.0.0.0.0.0.0.0.0.        O ^ ] ] ] ] ] ] ] _ 1         0.0.0.0.0.0.0.0.0.0.0.0.0.0.0.0.",
"0.0.0.0.0.0.0.0.0.0.0.0.0.0.0.      O * / [ ] [ ] [ [ [ ] q O .     0.0.0.0.0.0.0.0.0.0.0.0.0.0.0.0.",
"0.0.0.0.0.0.0.0.0.0.0.0.0.        : ^ / ] [ [ [ [ [ [ [ [ ( ( u         0.0.0.0.0.0.0.0.0.0.0.0.0.0.",
"0.0.0.0.0.0.0.0.0.0.0.0.0.        2 ] [ [ [ ] [ [ [ [ ] [ [ { j         0.0.0.0.0.0.0.0.0.0.0.0.0.0.",
"0.0.0.0.0.0.0.0.0.0.0.            O q q q q q q j [ [ [ [ [ [ / H f .   0.0.0.0.0.0.0.0.0.0.0.0.0.0.",
"0.0.0.0.0.0.0.0.0.0.0.                          q [ [ [ [ [ [ [ { ^ X   0.0.0.0.0.0.0.0.0.0.0.0.0.0.",
"0.0.0.0.0.0.0.0.0.0.4 C C C Z Z G G G G Z C C A M j l _ [ [ [ [ [ ~ .     0.0.0.0.0.0.0.0.0.0.0.0.0.",
"0.0.0.0.0.0.0.0.0.  9 ;.>.>.>.6.9.9.9.9.4.>.>.<.|   + ) [ [ ] [ [ ~ .             0.0.0.0.0.0.0.0.0.",
"0.0.0.0.0.0.0.0.0.  9 ;.>.>.>.5.8.8.8.7.,.>.;.;.}   + ) [ [ [ [ [ ~ X   * - - - - 0.0.0.0.0.0.0.0.0.",
"0.0.0.0.0.0.0.0.0.  9 ;.>.>.>.>.>.>.,.>.>.>.=.%.D   + ) [ [ [ [ [ ~ X   Y ] ] ] K     0.0.0.0.0.0.0.",
"0.0.0.0.0.0.0.0.0.  9 -.:.:.:.:.:.:.:.:.:.:.=.#.S   + ) [ [ [ [ [ ~ . . R [ [ [ Y     0.0.0.0.0.0.0.",
"0.0.0.0.0.0.0.0.0.  7 #.&.&.&.&.&.&.&.&.&.&.%.$.S   + ) [ [ ] [ [ ^ X . Y [ [ { Y     0.0.0.0.0.0.0.",
"0.0.0.0.0.0.0.0.0.  4 o.#.#.#.#.#.#.#.#.#.#.#.%.S   + ) [ [ [ [ [ ~ . . Y [ [ [ Y .   0.0.0.0.0.0.0.",
"0.0.0.0.0.0.0.0.0.0.% v v v v v v v v v v v v v a l H ] [ [ [ _ ( J .   R { [ { I     0.0.0.0.0.0.0.",
"0.0.0.0.0.0.0.0.0.0.0.                          q [ [ [ [ ] [ ) Y H . . Y [ [ [ Y .   0.0.0.0.0.0.0.",
"0.0.0.0.0.0.0.0.0.0.0.  . - q q r r r r r r r r l [ [ ] [ ] [ ) R l . . Y [ [ [ I .   0.0.0.0.0.0.0.",
"0.0.0.0.0.0.0.0.0.0.0.  . l R ) [ [ [ [ [ [ [ [ [ [ [ [ [ [ [ ) R l . . R { [ [ I     0.0.0.0.0.0.0.",
"0.0.0.0.0.0.0.0.0.0.0.  . l R ) [ [ [ [ [ [ [ [ [ [ [ [ [ [ [ ( R l . . Y [ ] ] K .   0.0.0.0.0.0.0.",
"0.0.0.0.0.0.0.0.0.0.0.  . l ~ ) [ [ [ ( k ^ [ [ [ ] [ [ [ [ [ ) R H . . R [ ( ~ k     0.0.0.0.0.0.0.",
"0.0.0.0.0.0.0.0.0.0.0.  . l ~ ) [ [ _ p o f ] [ [ [ ] [ [ [ [ ) R l . . Y [ ( ~ k     0.0.0.0.0.0.0.",
"0.0.0.0.0.0.0.0.0.0.0.  . l R ) [ [ ) : & < g _ ) i d / [ [ [ ) ~ l .   R [ ( ~ k .   0.0.0.0.0.0.0.",
"0.0.0.0.0.0.0.0.0.0.0.  . H R _ [ [ ] U 3 $ ; e w 6 < k [ [ [ ) ~ l . . R [ ) ~ k .   0.0.0.0.0.0.0.",
"0.0.0.0.0.0.0.0.0.0.0.  . l R ^ / ) [ [ / t # @ & 8 b T _ ) ( ^ ~ l . . H ( ^ R k     0.0.0.0.0.0.0.",
"0.0.0.0.0.0.0.0.0.0.0.  . l ~ ~ R ^ [ [ [ ] k # 8 0 +.O.` R Y R R l . . k ~ R R k .   0.0.0.0.0.0.0.",
"0.0.0.0.0.0.0.0.0.0.0.    y s H R ~ _ _ _ _ ) t ; m @.1.@.` P R R l .   l ~ R ~ j     0.0.0.0.0.0.0.",
"0.0.0.0.0.0.0.0.0.0.0.        u R R R R R R ) ) l ! ' +.2.2.X.W R l . . l R R ~ k .   0.0.0.0.0.0.0.",
"0.0.0.0.0.0.0.0.0.0.0.        u ~ R R R R R ) ] [ _ E B ..1.2.O.x l .   d J H H d     0.0.0.0.0.0.0.",
"0.0.0.0.0.0.0.0.0.0.0.0.0.    u ~ R R R R R ~ R ~ R ~ U c  .1.2.M l .   . X X X X 0.0.0.0.0.0.0.0.0.",
"0.0.0.0.0.0.0.0.0.0.0.0.0.    u R R R Y Y Y Y Y Y Y Y R R x G *.N k .             0.0.0.0.0.0.0.0.0.",
"0.0.0.0.0.0.0.0.0.0.0.0.0.    u R R R I 2 * = = = = = = - k L V n g .   0.0.0.0.0.0.0.0.0.0.0.0.0.0.",
"0.0.0.0.0.0.0.0.0.0.0.0.0.    u ~ R R I O                 f ~ U h g X   0.0.0.0.0.0.0.0.0.0.0.0.0.0.",
"0.0.0.0.0.0.0.0.0.0.0.0.0.    u ~ R R J O     0.0.0.      j ~ R R l .   0.0.0.0.0.0.0.0.0.0.0.0.0.0.",
"0.0.0.0.0.0.0.0.0.0.0.0.0.    u ~ R ~ I +   0.0.0.0.0.    j ~ ~ ^ l .   0.0.0.0.0.0.0.0.0.0.0.0.0.0.",
"0.0.0.0.0.0.0.0.0.0.0.0.0.    2 j f f s O   0.0.0.0.0.    r f f f u .   0.0.0.0.0.0.0.0.0.0.0.0.0.0.",
"0.0.0.0.0.0.0.0.0.0.0.0.0.                  0.0.0.0.0.                  0.0.0.0.0.0.0.0.0.0.0.0.0.0.",
"0.0.0.0.0.0.0.0.0.0.0.0.0.                  0.0.0.0.0.                  0.0.0.0.0.0.0.0.0.0.0.0.0.0.",
"0.0.0.0.0.0.0.0.0.0.0.0.0.0.0.0.0.0.0.0.0.0.0.0.0.0.0.0.0.0.0.0.0.0.0.0.0.0.0.0.0.0.0.0.0.0.0.0.0.0.",
"0.0.0.0.0.0.0.0.0.0.0.0.0.0.0.0.0.0.0.0.0.0.0.0.0.0.0.0.0.0.0.0.0.0.0.0.0.0.0.0.0.0.0.0.0.0.0.0.0.0.",
"0.0.0.0.0.0.0.0.0.0.0.0.0.0.0.0.0.0.0.0.0.0.0.0.0.0.0.0.0.0.0.0.0.0.0.0.0.0.0.0.0.0.0.0.0.0.0.0.0.0.",
"0.0.0.0.0.0.0.0.0.0.0.0.0.0.0.0.0.0.0.0.0.0.0.0.0.0.0.0.0.0.0.0.0.0.0.0.0.0.0.0.0.0.0.0.0.0.0.0.0.0.",
"0.0.0.0.0.0.0.0.0.0.0.0.0.0.0.0.0.0.0.0.0.0.0.0.0.0.0.0.0.0.0.0.0.0.0.0.0.0.0.0.0.0.0.0.0.0.0.0.0.0.",
"0.0.0.0.0.0.0.0.0.0.0.0.0.0.0.0.0.0.0.0.0.0.0.0.0.0.0.0.0.0.0.0.0.0.0.0.0.0.0.0.0.0.0.0.0.0.0.0.0.0.",
"0.0.0.0.0.0.0.0.0.0.0.0.0.0.0.0.0.0.0.0.0.0.0.0.0.0.0.0.0.0.0.0.0.0.0.0.0.0.0.0.0.0.0.0.0.0.0.0.0.0."
};
