/* XPM */
static char *result[] = {
/* columns rows colors chars-per-pixel */
"50 50 108 2 ",
"   c #010001",
".  c #060009",
"X  c #08000E",
"o  c #0C0C0C",
"O  c #0C0013",
"+  c #12011C",
"@  c #151514",
"#  c #181B16",
"$  c #1A151D",
"%  c #1B1C1A",
"&  c #18211E",
"*  c #160024",
"=  c #180126",
"-  c #1B002B",
";  c #1F1426",
":  c #1F0032",
">  c #201526",
",  c #22132C",
"<  c #261F2A",
"1  c #210134",
"2  c #260E35",
"3  c #280E37",
"4  c #24003A",
"5  c #2B0A3E",
"6  c #261033",
"7  c #1F2C27",
"8  c #1F2C28",
"9  c #232422",
"0  c #272827",
"q  c #212F2A",
"w  c #2B2A2C",
"e  c #283A33",
"r  c #3C3C3C",
"t  c #2A0043",
"y  c #2E004A",
"u  c #300A47",
"i  c #31004E",
"p  c #2E1040",
"a  c #360056",
"s  c #380854",
"d  c #370058",
"f  c #3D2F57",
"g  c #3D0162",
"h  c #400066",
"j  c #45006E",
"k  c #460071",
"l  c #490074",
"z  c #4E007D",
"x  c #344A42",
"c  c #464646",
"v  c #535353",
"b  c #4B4668",
"n  c #4D6F62",
"m  c #526F64",
"M  c #4E7162",
"N  c #587D6F",
"B  c #597E71",
"V  c gray40",
"C  c #606F69",
"Z  c #6D6E6D",
"A  c #716A75",
"S  c gray45",
"D  c gray47",
"F  c #530085",
"G  c #57008B",
"H  c #59008E",
"J  c #5D0095",
"K  c #5F0098",
"L  c #62009D",
"P  c #6500A1",
"I  c #6801A7",
"U  c #6B00AC",
"Y  c #6F00B2",
"T  c #7100B5",
"R  c #7500BB",
"E  c #7A00C3",
"W  c #7D00C9",
"Q  c #8000CD",
"!  c #6C9A89",
"~  c #73A492",
"^  c #8B8B8B",
"/  c #979797",
"(  c #989898",
")  c #84BBA7",
"_  c gray65",
"`  c #B5B5B5",
"'  c gray75",
"]  c #8AC4AF",
"[  c #8CC6B1",
"{  c #8DC8B3",
"}  c #91CEB8",
"|  c #99DAC3",
" . c #A8F0D6",
".. c #ACF5DA",
"X. c #B0FBDF",
"o. c #B4FFE4",
"O. c #BCFFE6",
"+. c #B9FFEA",
"@. c #C1C1C1",
"#. c #CECECE",
"$. c #D2D2D2",
"%. c #C0FFE9",
"&. c #D4FFEF",
"*. c #E0FFF5",
"=. c #E9FFF7",
"-. c #EFFFF9",
";. c #FEFFFF",
":. c None",
/* pixels */
":.:.:.:.:.:.:.:.:.:.:.:.:.:.:.:.:.:.:.:.:.:.:.:.:.:.:.:.:.:.:.:.:.:.:.:.:.:.:.:.:.:.:.:.:.:.:.:.:.:.",
":.:.:.:.:.:.:.:.:.:.:.:.:.:.:.:.:.:.:.:.:.:.:.:.:.:.:.:.:.:.:.:.:.:.:.:.:.:.:.:.:.:.:.:.:.:.:.:.:.:.",
":.:.:.:.:.:.:.:.:.:.:.:.:.:.:.:.:.:.:.:.:.:.:.:.:.:.:.:.:.:.:.:.:.:.:.:.:.:.:.:.:.:.:.:.:.:.:.:.:.:.",
":.:.:.:.:.:.:.:.:.:.:.:.:.:.:.:.:.:.:.:.:.:.:.:.:.:.:.:.:.:.:.:.:.:.:.:.:.:.:.:.:.:.:.:.:.:.:.:.:.:.",
":.:.:.:.:.:.:.:.:.:.:.:.:.:.:.:.:.:.:.:.:.:.:.:.:.:.:.:.:.:.:.:.:.:.:.:.:.:.:.:.:.:.:.:.:.:.:.:.:.:.",
":.:.:.:.:.:.:.:.:.:.:.:.:.:.:.:.:.:.                            :.:.:.:.:.:.:.:.:.:.:.:.:.:.:.:.:.:.",
":.:.:.:.:.:.:.:.:.:.:.:.:.:.:.:.:.:.    X 1 1 : 1 : : : 1 -     :.:.:.:.:.:.:.:.:.:.:.:.:.:.:.:.:.:.",
":.:.:.:.:.:.:.:.:.:.:.:.:.:.:.:.        4 R E E E E E E E I O         :.:.:.:.:.:.:.:.:.:.:.:.:.:.:.",
":.:.:.:.:.:.:.:.:.:.:.:.:.:.:.:.    . O y E W W W W W W W U = O       :.:.:.:.:.:.:.:.:.:.:.:.:.:.:.",
":.:.:.:.:.:.:.:.:.:.:.:.:.:.        d U Y W W E W E W W W E U I :         :.:.:.:.:.:.:.:.:.:.:.:.:.",
":.:.:.:.:.:.:.:.:.:.:.:.:.:.        k Q W W W W W W W W W W W E 4         :.:.:.:.:.:.:.:.:.:.:.:.:.",
":.:.:.:.:.:.:.:.:.:.:.:.:.:.  . j F U W W W W W W k 4 t t t t t O             :.:.:.:.:.:.:.:.:.:.:.",
":.:.:.:.:.:.:.:.:.:.:.:.:.:.  . I Q W W W E W W W t                           :.:.:.:.:.:.:.:.:.:.:.",
":.:.:.:.:.:.:.:.:.:.:.:.:.    X P W W W W W E z l b M n n m Z Z Z Z C M n n n 7 :.:.:.:.:.:.:.:.:.:.",
":.:.:.:.:.:.:.:.:.            X P W W W W W T +   ~ +.+.o.O.;.;.;.;.*.o.o.o...e   :.:.:.:.:.:.:.:.:.",
":.:.:.:.:.:.:.:.:.- - - - *   . P W W W W W T +   ! ....o.O.=.-.-.-.&.o.o.o...e   :.:.:.:.:.:.:.:.:.",
":.:.:.:.:.:.:.  . H E R E H . X P W W W W W T +   B { | o.o.o.o.o.o.o.o.o.o. .e   :.:.:.:.:.:.:.:.:.",
":.:.:.:.:.:.:.    J W W Q L . . P W W W W W T +   N [ | X.X.X.X.X.X.X.X.X.X. .e   :.:.:.:.:.:.:.:.:.",
":.:.:.:.:.:.:.  . J Q W Q L . . P W W W W W T +   N [ { } } } } } } } } } } ] q   :.:.:.:.:.:.:.:.:.",
":.:.:.:.:.:.:.  . J W W W K . . P W W W W W T +   N { ] ] ] ] ] ] [ [ [ ] ] ) q     :.c r :.:.:.:.:.",
":.:.:.:.:.:.:.    J Q E Q L . . G U R W W W E F z f x x x x x x x x x x x x x & 9 v _ D :.:.:.:.:.:.",
":.:.:.:.:.:.:.  . J Q W W K   . z P T W W W W W W t                         @ v ^ ` $.V :.:.:.:.:.:.",
":.:.:.:.:.:.:.    J Q E W L . . z L T W W W W W W z i i i i i i i i 4 + , r D _ @.$.` c :.:.:.:.:.:.",
":.:.:.:.:.:.:.  . J Q W W L . . z P T W W W E W W W W W Q W W W Q L 5 < A _ ' #.@.( V :.:.:.:.:.:.:.",
":.:.:.:.:.:.:.    H E E Q L   . z L Y Q Q E Q E W E W W W W W E L u 9 0 ^ $.' ( S :.:.:.:.:.:.:.:.:.",
":.:.:.:.:.:.:.  . l P T W L . . z L T E R Q E Q W W W W W E K s > % # w v ^ c :.:.:.:.:.:.:.:.:.:.:.",
":.:.:.:.:.:.:.  . l L T Q L   . z L T Q Q Q Q E W W W W E g ; & & 3 1 w 0 o   :.:.:.:.:.:.:.:.:.:.:.",
":.:.:.:.:.:.:.    l L T W L . . z L T E Q E E Q W W E W R 5 # 6 j U I 3 % .   :.:.:.:.:.:.:.:.:.:.:.",
":.:.:.:.:.:.:.    l L T Q L . . z L T Q Q E Q E E Q E Q Q F = J W W T H g .   :.:.:.:.:.:.:.:.:.:.:.",
":.:.:.:.:.:.:.  . l L I Y F . . F L I Y T E E Q Q E Q E W R T R T U U L z .   :.:.:.:.:.:.:.:.:.:.:.",
":.:.:.:.:.:.:.    l L L L l   . z L L L I Q Q E E Q E Q W Q Q Q U L L P F .   :.:.:.:.:.:.:.:.:.:.:.",
":.:.:.:.:.:.:.  . l L L L z . . z L L L I Q E Q E E Q E T R T T I L F h a     :.:.:.:.:.:.:.:.:.:.:.",
":.:.:.:.:.:.:.    l P L P z . . z P L L U W W W W W W R L L L L L P a         :.:.:.:.:.:.:.:.:.:.:.",
":.:.:.:.:.:.:.  . h F F F h   . z L L L U R E E R E E T L L L L L P a         :.:.:.:.:.:.:.:.:.:.:.",
":.:.:.:.:.:.:.:.:.X X X X .   . z P L L L P P P P P L L L L L L L L a     :.:.:.:.:.:.:.:.:.:.:.:.:.",
":.:.:.:.:.:.:.:.:.            . z P L L L J J K J J J L K J L L L P a     :.:.:.:.:.:.:.:.:.:.:.:.:.",
":.:.:.:.:.:.:.:.:.:.:.:.:.:.  . F L L L l - = = - = = = = 4 J L L P a     :.:.:.:.:.:.:.:.:.:.:.:.:.",
":.:.:.:.:.:.:.:.:.:.:.:.:.:.  . z L L L j                 O H L L P a     :.:.:.:.:.:.:.:.:.:.:.:.:.",
":.:.:.:.:.:.:.:.:.:.:.:.:.:.  . z L L P k       :.:.:.    + G L L P d     :.:.:.:.:.:.:.:.:.:.:.:.:.",
":.:.:.:.:.:.:.:.:.:.:.:.:.:.  . F P L I k     :.:.:.:.:.  O J L L P d     :.:.:.:.:.:.:.:.:.:.:.:.:.",
":.:.:.:.:.:.:.:.:.:.:.:.:.:.  . d j j k i     :.:.:.:.:.  O g j j k 4     :.:.:.:.:.:.:.:.:.:.:.:.:.",
":.:.:.:.:.:.:.:.:.:.:.:.:.:.                  :.:.:.:.:.                  :.:.:.:.:.:.:.:.:.:.:.:.:.",
":.:.:.:.:.:.:.:.:.:.:.:.:.:.                  :.:.:.:.:.                  :.:.:.:.:.:.:.:.:.:.:.:.:.",
":.:.:.:.:.:.:.:.:.:.:.:.:.:.:.:.:.:.:.:.:.:.:.:.:.:.:.:.:.:.:.:.:.:.:.:.:.:.:.:.:.:.:.:.:.:.:.:.:.:.",
":.:.:.:.:.:.:.:.:.:.:.:.:.:.:.:.:.:.:.:.:.:.:.:.:.:.:.:.:.:.:.:.:.:.:.:.:.:.:.:.:.:.:.:.:.:.:.:.:.:.",
":.:.:.:.:.:.:.:.:.:.:.:.:.:.:.:.:.:.:.:.:.:.:.:.:.:.:.:.:.:.:.:.:.:.:.:.:.:.:.:.:.:.:.:.:.:.:.:.:.:.",
":.:.:.:.:.:.:.:.:.:.:.:.:.:.:.:.:.:.:.:.:.:.:.:.:.:.:.:.:.:.:.:.:.:.:.:.:.:.:.:.:.:.:.:.:.:.:.:.:.:.",
":.:.:.:.:.:.:.:.:.:.:.:.:.:.:.:.:.:.:.:.:.:.:.:.:.:.:.:.:.:.:.:.:.:.:.:.:.:.:.:.:.:.:.:.:.:.:.:.:.:.",
":.:.:.:.:.:.:.:.:.:.:.:.:.:.:.:.:.:.:.:.:.:.:.:.:.:.:.:.:.:.:.:.:.:.:.:.:.:.:.:.:.:.:.:.:.:.:.:.:.:.",
":.:.:.:.:.:.:.:.:.:.:.:.:.:.:.:.:.:.:.:.:.:.:.:.:.:.:.:.:.:.:.:.:.:.:.:.:.:.:.:.:.:.:.:.:.:.:.:.:.:."
};
