/* XPM */
static char *result[] = {
/* columns rows colors chars-per-pixel */
"50 50 198 2 ",
"   c black",
".  c #010000",
"X  c #020000",
"o  c #030000",
"O  c #040000",
"+  c #060000",
"@  c #070000",
"#  c #080000",
"$  c #090000",
"%  c #0A0000",
"&  c #0B0000",
"*  c #0C0000",
"=  c #0D0000",
"-  c #0E0000",
";  c #0F0000",
":  c #100000",
">  c #110000",
",  c #130000",
"<  c #140000",
"1  c #160000",
"2  c #190000",
"3  c #1A0000",
"4  c #1C0000",
"5  c #1D0000",
"6  c #220000",
"7  c #240000",
"8  c #2B0000",
"9  c #2E0000",
"0  c #2F0000",
"q  c #300000",
"w  c #330000",
"e  c #340000",
"r  c #380000",
"t  c #390000",
"y  c #3D0000",
"u  c #17201D",
"i  c #1F2C27",
"p  c #1F2C28",
"a  c #212F2A",
"s  c #283932",
"d  c #283A33",
"f  c #400000",
"g  c #410000",
"h  c #420000",
"j  c #460000",
"k  c #480000",
"l  c #4B0000",
"z  c #4C0000",
"x  c #4D0000",
"c  c #530000",
"v  c #540000",
"b  c #560000",
"n  c #590000",
"m  c #5A0000",
"M  c #5C0000",
"N  c #600000",
"B  c #610000",
"V  c #630000",
"C  c #640000",
"Z  c #660000",
"A  c #6D0000",
"S  c #6F0000",
"D  c #7A0000",
"F  c #7B0000",
"G  c #5B2F2A",
"H  c #66463F",
"J  c #334941",
"K  c #324B43",
"L  c #344A42",
"P  c #4C6C60",
"I  c #4D6F62",
"U  c #4E6F62",
"Y  c #526F64",
"T  c #4C7164",
"R  c #587D6F",
"E  c #587D70",
"W  c #597E71",
"Q  c #606F69",
"!  c #6B6F6D",
"~  c #6F6F6F",
"^  c #800000",
"/  c #810000",
"(  c #880000",
")  c #890000",
"_  c #8A0000",
"`  c #8C0000",
"'  c #8F0000",
"]  c #910000",
"[  c #920000",
"{  c #930000",
"}  c #940000",
"|  c #960000",
" . c #970000",
".. c #980000",
"X. c #990000",
"o. c #9C0000",
"O. c #9D0000",
"+. c #9E0000",
"@. c #A00000",
"#. c #A60000",
"$. c #A80000",
"%. c #AA0000",
"&. c #AB0000",
"*. c #AC0000",
"=. c #AF0000",
"-. c #B10000",
";. c #B50000",
":. c #B60000",
">. c #BC0000",
",. c #BD0000",
"<. c #BE0000",
"1. c #C20000",
"2. c #C30000",
"3. c #C40000",
"4. c #C50000",
"5. c #C60000",
"6. c #C70000",
"7. c #C80000",
"8. c #C90000",
"9. c #CA0000",
"0. c #CB0000",
"q. c #CD0000",
"w. c #CF0000",
"e. c #D00000",
"r. c #D10000",
"t. c #D20000",
"y. c #D30000",
"u. c #D50000",
"i. c #D60000",
"p. c #D90000",
"a. c #DD0000",
"s. c #DE0000",
"d. c #E00000",
"f. c #E10000",
"g. c #E20000",
"h. c #E40000",
"j. c #E50000",
"k. c #E60000",
"l. c #E70000",
"z. c #EA0000",
"x. c #EB0000",
"c. c #EF0000",
"v. c #F30000",
"b. c #F40000",
"n. c #F50000",
"m. c #F60000",
"M. c #F70000",
"N. c #F80000",
"B. c #F90000",
"V. c #FA0000",
"C. c #FB0000",
"Z. c #FC0000",
"A. c #FD0000",
"S. c #FE0000",
"D. c red",
"F. c #6C9A89",
"G. c #72A492",
"H. c #84BBA7",
"J. c #8AC4AF",
"K. c #8BC5B0",
"L. c #8CC6B1",
"P. c #8CC7B2",
"I. c #8DC8B2",
"U. c #8DC8B3",
"Y. c #8EC9B4",
"T. c #91CEB8",
"R. c #92CFB9",
"E. c #98D8C1",
"W. c #9ADCC4",
"Q. c #A8F0D6",
"!. c #ABF4D9",
"~. c #ADF6DB",
"^. c #ADF7DC",
"/. c #B0FBDF",
"(. c #B1FCE0",
"). c #B2FFE3",
"_. c #B3FFE3",
"`. c #B4FFE3",
"'. c #B3FFE4",
"]. c #B4FFE4",
"[. c #B5FFE4",
"{. c #B4FFE5",
"}. c #B5FFE5",
"|. c #B6FFE4",
" X c #B7FFE4",
".X c #B7FFE5",
"XX c #B5FFE6",
"oX c #BCFFE6",
"OX c #B9FFEA",
"+X c #C0FFE9",
"@X c #D4FFEF",
"#X c #E0FFF5",
"$X c #E9FFF7",
"%X c #EEFFF9",
"&X c #EFFFF9",
"*X c #FBFFFF",
"=X c white",
"-X c None",
/* pixels */
"-X-X-X-X-X-X-X-X-X-X-X-X-X-X-X-X-X-X-X-X-X-X-X-X-X-X-X-X-X-X-X-X-X-X-X-X-X-X-X-X-X-X-X-X-X-X-X-X-X-X",
"-X-X-X-X-X-X-X-X-X-X-X-X-X-X-X-X-X-X-X-X-X-X-X-X-X-X-X-X-X-X-X-X-X-X-X-X-X-X-X-X-X-X-X-X-X-X-X-X-X-X",
"-X-X-X-X-X-X-X-X-X-X-X-X-X-X-X-X-X-X-X-X-X-X-X-X-X-X-X-X-X-X-X-X-X-X-X-X-X-X-X-X-X-X-X-X-X-X-X-X-X-X",
"-X-X-X-X-X-X-X-X-X-X-X-X-X-X-X-X-X-X-X-X-X-X-X-X-X-X-X-X-X-X-X-X-X-X-X-X-X-X-X-X-X-X-X-X-X-X-X-X-X-X",
"-X-X-X-X-X-X-X-X-X-X-X-X-X-X-X-X-X-X-X-X-X-X-X-X-X-X-X-X-X-X-X-X-X-X-X-X-X-X-X-X-X-X-X-X-X-X-X-X-X-X",
"-X-X-X-X-X-X-X-X-X-X-X-X-X-X-X-X-X-X                            -X-X-X-X-X-X-X-X-X-X-X-X-X-X-X-X-X-X",
"-X-X-X-X-X-X-X-X-X-X-X-X-X-X-X-X-X-X  + r h g g g g g h f ,     -X-X-X-X-X-X-X-X-X-X-X-X-X-X-X-X-X-X",
"-X-X-X-X-X-X-X-X-X-X-X-X-X-X-X        1 y.V.M.M.M.M.M.M.v.k         -X-X-X-X-X-X-X-X-X-X-X-X-X-X-X-X",
"-X-X-X-X-X-X-X-X-X-X-X-X-X-X-X    @ 1 9 s.D.D.D.D.D.D.D.Z.M < =     -X-X-X-X-X-X-X-X-X-X-X-X-X-X-X-X",
"-X-X-X-X-X-X-X-X-X-X-X-X-X        f i.s.V.D.D.D.D.D.D.D.S.j.a.D         -X-X-X-X-X-X-X-X-X-X-X-X-X-X",
"-X-X-X-X-X-X-X-X-X-X-X-X-X        l C.D.S.A.A.A.S.D.D.D.D.D.D.]   .     -X-X-X-X-X-X-X-X-X-X-X-X-X-X",
"-X-X-X-X-X-X-X-X-X-X-X            2 v b b b b c { D.D.D.D.D.D.p.&.( %   -X-X-X-X-X-X-X-X-X-X-X-X-X-X",
"-X-X-X-X-X-X-X-X-X-X-X                          m D.D.D.D.D.D.D.D.r.;   -X-X-X-X-X-X-X-X-X-X-X-X-X-X",
"-X-X-X-X-X-X-X-X-X-Xp P U U I Q ~ ~ ~ ! Y I U T H ' @.b.D.D.D.D.D.q.;     -X-X-X-X-X-X-X-X-X-X-X-X-X",
"-X-X-X-X-X-X-X-X-X  d ~.XX}.{.#X=X=X=X*X+X{.XXOXG.  6 k.D.D.D.D.D.q.;             -X-X-X-X-X-X-X-X-X",
"-X-X-X-X-X-X-X-X-X  d !.'._.).@X&X%X&X$XoX).^.~.F.  7 k.D.D.D.D.D.q.; . 8 t r r e -X-X-X-X-X-X-X-X-X",
"-X-X-X-X-X-X-X-X-X  d !.]._._.[..X.X X|.`._.W.Y.W   7 k.D.D.D.D.D.q.- $ >.M.v.M.:.@   -X-X-X-X-X-X-X",
"-X-X-X-X-X-X-X-X-X  s Q.(./././././././././.E.L.R   7 k.D.D.D.D.D.q.- % 4.D.D.D.,.@   -X-X-X-X-X-X-X",
"-X-X-X-X-X-X-X-X-X  a K.R.T.T.T.T.T.T.T.T.T.I.P.R   7 k.D.D.D.D.D.q.- % 4.D.D.D.,.@   -X-X-X-X-X-X-X",
"-X-X-X-X-X-X-X-X-X  i H.J.J.J.J.J.J.J.J.J.J.J.U.E   7 k.D.D.D.D.D.q.- % 4.D.D.D.,.@   -X-X-X-X-X-X-X",
"-X-X-X-X-X-X-X-X-X-Xu J L L L L L L L L L L L K G +.*.m.D.D.D.c.a.=.* % 4.D.D.D.,.@   -X-X-X-X-X-X-X",
"-X-X-X-X-X-X-X-X-X-X-X                          m D.D.D.D.D.D.j.4.O.& % 4.D.D.D.,.@   -X-X-X-X-X-X-X",
"-X-X-X-X-X-X-X-X-X-X-X  O y x n C V V V V V V B o.D.D.D.D.D.D.j.5.+.& % 4.D.D.D.,.@   -X-X-X-X-X-X-X",
"-X-X-X-X-X-X-X-X-X-X-X  & +.6.k.D.D.D.D.D.D.D.D.D.D.D.D.D.D.D.j.5.+.& % 4.D.D.D.,.@   -X-X-X-X-X-X-X",
"-X-X-X-X-X-X-X-X-X-X-X  & O.5.j.D.D.D.D.D.D.D.D.D.D.D.D.D.D.D.j.5.+.& % 4.D.B.N.;.@   -X-X-X-X-X-X-X",
"-X-X-X-X-X-X-X-X-X-X-X  & O.5.j.D.D.D.D.D.D.D.D.D.D.D.D.D.D.D.j.5.+.& % 4.D.g.9.} +   -X-X-X-X-X-X-X",
"-X-X-X-X-X-X-X-X-X-X-X  & O.5.j.D.D.D.D.D.D.D.D.D.D.D.D.D.D.D.j.5.+.& % 4.D.d.5.] +   -X-X-X-X-X-X-X",
"-X-X-X-X-X-X-X-X-X-X-X  & O.5.j.D.D.D.D.D.D.D.D.D.D.D.D.D.D.D.j.5.+.& % 4.D.d.5.] +   -X-X-X-X-X-X-X",
"-X-X-X-X-X-X-X-X-X-X-X  & O.5.j.D.D.D.D.D.D.D.D.D.D.D.D.D.D.D.j.5.+.& % 4.D.f.5.] +   -X-X-X-X-X-X-X",
"-X-X-X-X-X-X-X-X-X-X-X  & O.5.t.a.l.S.D.D.D.D.D.D.D.D.D.S.l.a.t.5.+.& $ %.d.e.6.] +   -X-X-X-X-X-X-X",
"-X-X-X-X-X-X-X-X-X-X-X  & @.9.4.1.u.D.D.D.D.D.D.D.D.D.D.S.u.1.2.5.+.& # | 5.2.6.] +   -X-X-X-X-X-X-X",
"-X-X-X-X-X-X-X-X-X-X-X  @ Z / #.4.w.z.x.x.x.M.D.D.D.D.D.S.u.2.3.5.+.& #  .6.3.6.] +   -X-X-X-X-X-X-X",
"-X-X-X-X-X-X-X-X-X-X-X    .   A 6.3.3.3.3.3.z.D.D.D.D.D.D.i.2.3.5.+.& # X.8.5.8.[ +   -X-X-X-X-X-X-X",
"-X-X-X-X-X-X-X-X-X-X-X        A 6.3.3.3.3.3.h.M.m.m.m.m.n.y.2.3.5.+.& + ^ $.#.$.^ +   -X-X-X-X-X-X-X",
"-X-X-X-X-X-X-X-X-X-X-X-X-X    A 6.3.3.3.3.3.7.9.9.9.9.9.8.5.3.3.5.+.&   = > > > : -X-X-X-X-X-X-X-X-X",
"-X-X-X-X-X-X-X-X-X-X-X-X-X    A 6.3.3.2.<.,.,.,.,.,.,.,.,.1.3.3.5.+.&             -X-X-X-X-X-X-X-X-X",
"-X-X-X-X-X-X-X-X-X-X-X-X-X    A 6.3.4.:.j 0 q q q q q q w ..5.3.5.+.&   -X-X-X-X-X-X-X-X-X-X-X-X-X-X",
"-X-X-X-X-X-X-X-X-X-X-X-X-X    A 6.3.4.-.3                 ) 6.3.5.+.&   -X-X-X-X-X-X-X-X-X-X-X-X-X-X",
"-X-X-X-X-X-X-X-X-X-X-X-X-X    A 6.3.4.-.4     -X-X-X    o _ 6.3.5.+.&   -X-X-X-X-X-X-X-X-X-X-X-X-X-X",
"-X-X-X-X-X-X-X-X-X-X-X-X-X    S 0.6.8.;.5   -X-X-X-X-X  o ` 0.6.9.@.*   -X-X-X-X-X-X-X-X-X-X-X-X-X-X",
"-X-X-X-X-X-X-X-X-X-X-X-X-X    z _ ( ) F <   -X-X-X-X-X  X N _ ( _ A #   -X-X-X-X-X-X-X-X-X-X-X-X-X-X",
"-X-X-X-X-X-X-X-X-X-X-X-X-X    . o o o X     -X-X-X-X-X    X o o o X     -X-X-X-X-X-X-X-X-X-X-X-X-X-X",
"-X-X-X-X-X-X-X-X-X-X-X-X-X                  -X-X-X-X-X                  -X-X-X-X-X-X-X-X-X-X-X-X-X-X",
"-X-X-X-X-X-X-X-X-X-X-X-X-X-X-X-X-X-X-X-X-X-X-X-X-X-X-X-X-X-X-X-X-X-X-X-X-X-X-X-X-X-X-X-X-X-X-X-X-X-X",
"-X-X-X-X-X-X-X-X-X-X-X-X-X-X-X-X-X-X-X-X-X-X-X-X-X-X-X-X-X-X-X-X-X-X-X-X-X-X-X-X-X-X-X-X-X-X-X-X-X-X",
"-X-X-X-X-X-X-X-X-X-X-X-X-X-X-X-X-X-X-X-X-X-X-X-X-X-X-X-X-X-X-X-X-X-X-X-X-X-X-X-X-X-X-X-X-X-X-X-X-X-X",
"-X-X-X-X-X-X-X-X-X-X-X-X-X-X-X-X-X-X-X-X-X-X-X-X-X-X-X-X-X-X-X-X-X-X-X-X-X-X-X-X-X-X-X-X-X-X-X-X-X-X",
"-X-X-X-X-X-X-X-X-X-X-X-X-X-X-X-X-X-X-X-X-X-X-X-X-X-X-X-X-X-X-X-X-X-X-X-X-X-X-X-X-X-X-X-X-X-X-X-X-X-X",
"-X-X-X-X-X-X-X-X-X-X-X-X-X-X-X-X-X-X-X-X-X-X-X-X-X-X-X-X-X-X-X-X-X-X-X-X-X-X-X-X-X-X-X-X-X-X-X-X-X-X",
"-X-X-X-X-X-X-X-X-X-X-X-X-X-X-X-X-X-X-X-X-X-X-X-X-X-X-X-X-X-X-X-X-X-X-X-X-X-X-X-X-X-X-X-X-X-X-X-X-X-X"
};
