/* XPM */
static char *result[] = {
/* columns rows colors chars-per-pixel */
"50 50 199 2 ",
"   c black",
".  c #010000",
"X  c #020000",
"o  c #030000",
"O  c #040000",
"+  c #060000",
"@  c #070000",
"#  c #080000",
"$  c #090000",
"%  c #0A0000",
"&  c #0B0000",
"*  c #0C0000",
"=  c #0D0000",
"-  c #0E0000",
";  c #0F0000",
":  c #100000",
">  c #110000",
",  c #130000",
"<  c #140000",
"1  c #160000",
"2  c #190000",
"3  c #1A0000",
"4  c #1C0000",
"5  c #1D0000",
"6  c #220000",
"7  c #240000",
"8  c #2B0000",
"9  c #2E0000",
"0  c #2F0000",
"q  c #300000",
"w  c #330000",
"e  c #340000",
"r  c #380000",
"t  c #390000",
"y  c #3D0000",
"u  c #17201D",
"i  c #1F2C27",
"p  c #1F2C28",
"a  c #212F2A",
"s  c #283932",
"d  c #283933",
"f  c #283A33",
"g  c #400000",
"h  c #410000",
"j  c #420000",
"k  c #460000",
"l  c #480000",
"z  c #4B0000",
"x  c #4C0000",
"c  c #4D0000",
"v  c #530000",
"b  c #540000",
"n  c #560000",
"m  c #590000",
"M  c #5A0000",
"N  c #5C0000",
"B  c #600000",
"V  c #610000",
"C  c #630000",
"Z  c #640000",
"A  c #660000",
"S  c #6D0000",
"D  c #6F0000",
"F  c #7A0000",
"G  c #7B0000",
"H  c #5B2F2A",
"J  c #66463F",
"K  c #334941",
"L  c #324B43",
"P  c #344A42",
"I  c #4C6C60",
"U  c #4D6F62",
"Y  c #4E6F62",
"T  c #526F64",
"R  c #4C7164",
"E  c #587D6F",
"W  c #587D70",
"Q  c #597E71",
"!  c #606F69",
"~  c #6B6F6D",
"^  c #6F6F6F",
"/  c #800000",
"(  c #810000",
")  c #880000",
"_  c #890000",
"`  c #8A0000",
"'  c #8C0000",
"]  c #8F0000",
"[  c #910000",
"{  c #920000",
"}  c #930000",
"|  c #940000",
" . c #960000",
".. c #970000",
"X. c #980000",
"o. c #990000",
"O. c #9C0000",
"+. c #9D0000",
"@. c #9E0000",
"#. c #A00000",
"$. c #A60000",
"%. c #A80000",
"&. c #AA0000",
"*. c #AB0000",
"=. c #AC0000",
"-. c #AF0000",
";. c #B10000",
":. c #B40000",
">. c #B50000",
",. c #B60000",
"<. c #BC0000",
"1. c #BD0000",
"2. c #BE0000",
"3. c #C20000",
"4. c #C30000",
"5. c #C40000",
"6. c #C50000",
"7. c #C60000",
"8. c #C70000",
"9. c #C80000",
"0. c #C90000",
"q. c #CA0000",
"w. c #CB0000",
"e. c #CD0000",
"r. c #CF0000",
"t. c #D00000",
"y. c #D10000",
"u. c #D20000",
"i. c #D30000",
"p. c #D50000",
"a. c #D60000",
"s. c #D90000",
"d. c #DD0000",
"f. c #DE0000",
"g. c #E00000",
"h. c #E10000",
"j. c #E20000",
"k. c #E40000",
"l. c #E50000",
"z. c #E60000",
"x. c #E70000",
"c. c #EA0000",
"v. c #EB0000",
"b. c #EF0000",
"n. c #F30000",
"m. c #F40000",
"M. c #F50000",
"N. c #F60000",
"B. c #F70000",
"V. c #F80000",
"C. c #F90000",
"Z. c #FA0000",
"A. c #FB0000",
"S. c #FC0000",
"D. c #FD0000",
"F. c #FE0000",
"G. c red",
"H. c #6C9A89",
"J. c #72A492",
"K. c #84BBA7",
"L. c #8AC4AF",
"P. c #8BC5B0",
"I. c #8CC6B1",
"U. c #8CC7B2",
"Y. c #8DC8B2",
"T. c #8DC8B3",
"R. c #8EC9B4",
"E. c #91CEB8",
"W. c #92CFB9",
"Q. c #98D8C1",
"!. c #9ADCC4",
"~. c #A8F0D6",
"^. c #ABF4D9",
"/. c #ADF6DB",
"(. c #ADF7DC",
"). c #B0FBDF",
"_. c #B1FCE0",
"`. c #B2FFE3",
"'. c #B3FFE3",
"]. c #B4FFE3",
"[. c #B3FFE4",
"{. c #B4FFE4",
"}. c #B5FFE4",
"|. c #B4FFE5",
" X c #B5FFE5",
".X c #B6FFE4",
"XX c #B7FFE5",
"oX c #B5FFE6",
"OX c #BCFFE6",
"+X c #B9FFEA",
"@X c #C0FFE9",
"#X c #D4FFEF",
"$X c #E0FFF5",
"%X c #E9FFF7",
"&X c #EEFFF9",
"*X c #EFFFF9",
"=X c #FBFFFF",
"-X c white",
";X c None",
/* pixels */
";X;X;X;X;X;X;X;X;X;X;X;X;X;X;X;X;X;X;X;X;X;X;X;X;X;X;X;X;X;X;X;X;X;X;X;X;X;X;X;X;X;X;X;X;X;X;X;X;X;X",
";X;X;X;X;X;X;X;X;X;X;X;X;X;X;X;X;X;X;X;X;X;X;X;X;X;X;X;X;X;X;X;X;X;X;X;X;X;X;X;X;X;X;X;X;X;X;X;X;X;X",
";X;X;X;X;X;X;X;X;X;X;X;X;X;X;X;X;X;X;X;X;X;X;X;X;X;X;X;X;X;X;X;X;X;X;X;X;X;X;X;X;X;X;X;X;X;X;X;X;X;X",
";X;X;X;X;X;X;X;X;X;X;X;X;X;X;X;X;X;X;X;X;X;X;X;X;X;X;X;X;X;X;X;X;X;X;X;X;X;X;X;X;X;X;X;X;X;X;X;X;X;X",
";X;X;X;X;X;X;X;X;X;X;X;X;X;X;X;X;X;X;X;X;X;X;X;X;X;X;X;X;X;X;X;X;X;X;X;X;X;X;X;X;X;X;X;X;X;X;X;X;X;X",
";X;X;X;X;X;X;X;X;X;X;X;X;X;X;X;X;X;X                            ;X;X;X;X;X;X;X;X;X;X;X;X;X;X;X;X;X;X",
";X;X;X;X;X;X;X;X;X;X;X;X;X;X;X;X;X;X    , g j h h h h h j r +   ;X;X;X;X;X;X;X;X;X;X;X;X;X;X;X;X;X;X",
";X;X;X;X;X;X;X;X;X;X;X;X;X;X;X;X        l n.B.B.B.B.B.B.Z.i.1         ;X;X;X;X;X;X;X;X;X;X;X;X;X;X;X",
";X;X;X;X;X;X;X;X;X;X;X;X;X;X;X;X    = < N S.G.G.G.G.G.G.G.f.9 1 @     ;X;X;X;X;X;X;X;X;X;X;X;X;X;X;X",
";X;X;X;X;X;X;X;X;X;X;X;X;X;X        F d.l.F.G.G.G.G.G.G.G.Z.f.a.g         ;X;X;X;X;X;X;X;X;X;X;X;X;X",
";X;X;X;X;X;X;X;X;X;X;X;X;X;X    .   [ G.G.G.G.G.G.F.D.D.D.F.G.A.z         ;X;X;X;X;X;X;X;X;X;X;X;X;X",
";X;X;X;X;X;X;X;X;X;X;X;X;X;X  % ) *.s.G.G.G.G.G.G.} v n n n n b 2             ;X;X;X;X;X;X;X;X;X;X;X",
";X;X;X;X;X;X;X;X;X;X;X;X;X;X  ; y.G.G.G.G.G.G.G.G.M                           ;X;X;X;X;X;X;X;X;X;X;X",
";X;X;X;X;X;X;X;X;X;X;X;X;X    ; e.G.G.G.G.G.m.#.] J R Y U T ~ ^ ^ ^ ! U Y Y I p ;X;X;X;X;X;X;X;X;X;X",
";X;X;X;X;X;X;X;X;X            ; e.G.G.G.G.G.z.6   J.+XoX|.@X=X-X-X-X$X|. XoX/.f   ;X;X;X;X;X;X;X;X;X",
";X;X;X;X;X;X;X;X;Xe r r t 8 . ; e.G.G.G.G.G.z.7   H./.(.`.OX%X*X&X*X#X`.'.[.^.d   ;X;X;X;X;X;X;X;X;X",
";X;X;X;X;X;X;X  @ ,.B.n.B.<.$ - e.G.G.G.G.G.z.7   Q R.!.'.]..XXXXXXX}.'.'.{.^.f   ;X;X;X;X;X;X;X;X;X",
";X;X;X;X;X;X;X  @ 1.G.G.G.6.% - e.G.G.G.G.G.z.7   E I.Q.).).).).).).).).)._.~.s   ;X;X;X;X;X;X;X;X;X",
";X;X;X;X;X;X;X  @ 1.G.G.G.6.% - e.G.G.G.G.G.z.7   E U.Y.E.E.E.E.E.E.E.E.E.W.P.a   ;X;X;X;X;X;X;X;X;X",
";X;X;X;X;X;X;X  @ 1.G.G.G.6.% - e.G.G.G.G.G.z.7   W T.L.L.L.L.L.L.L.L.L.L.L.K.i   ;X;X;X;X;X;X;X;X;X",
";X;X;X;X;X;X;X  @ 1.G.G.G.6.% * -.d.b.G.G.G.N.=.@.H L P P P P P P P P P P P K u ;X;X;X;X;X;X;X;X;X;X",
";X;X;X;X;X;X;X  @ 1.G.G.G.6.% & +.6.l.G.G.G.G.G.G.M                           ;X;X;X;X;X;X;X;X;X;X;X",
";X;X;X;X;X;X;X  @ 1.G.G.G.6.% & @.7.l.G.G.G.G.G.G.O.V C C C C C C Z m c y O   ;X;X;X;X;X;X;X;X;X;X;X",
";X;X;X;X;X;X;X  @ 1.G.G.G.6.% & @.7.l.G.G.G.G.G.G.G.G.G.G.G.G.G.G.G.z.8.@.&   ;X;X;X;X;X;X;X;X;X;X;X",
";X;X;X;X;X;X;X  @ >.V.C.G.6.% & @.7.l.G.G.G.G.G.G.G.G.G.G.G.G.G.G.G.l.7.+.&   ;X;X;X;X;X;X;X;X;X;X;X",
";X;X;X;X;X;X;X  + | q.j.G.6.% & @.7.l.G.G.G.G.G.G.G.G.G.G.G.G.G.G.G.l.7.+.&   ;X;X;X;X;X;X;X;X;X;X;X",
";X;X;X;X;X;X;X  + [ 7.g.G.6.% & @.7.l.G.G.G.G.G.G.G.G.G.G.G.G.G.G.G.l.7.+.&   ;X;X;X;X;X;X;X;X;X;X;X",
";X;X;X;X;X;X;X  + [ 7.g.G.6.% & @.7.l.G.G.G.G.G.G.G.G.G.G.G.G.G.G.G.l.7.+.&   ;X;X;X;X;X;X;X;X;X;X;X",
";X;X;X;X;X;X;X  + [ 7.h.G.6.% & @.7.l.G.G.G.G.G.G.G.G.G.G.G.G.G.G.G.l.7.+.&   ;X;X;X;X;X;X;X;X;X;X;X",
";X;X;X;X;X;X;X  + [ 8.t.g.&.$ & @.7.u.d.x.F.G.G.G.G.G.G.G.G.G.F.x.d.u.7.+.&   ;X;X;X;X;X;X;X;X;X;X;X",
";X;X;X;X;X;X;X  + [ 8.4.7. .# & @.7.4.3.p.F.G.G.G.G.G.G.G.G.G.G.p.3.6.q.#.&   ;X;X;X;X;X;X;X;X;X;X;X",
";X;X;X;X;X;X;X  + [ 8.5.8...# & @.7.5.4.p.F.G.G.G.G.G.B.v.v.v.c.r.6.$.( A @   ;X;X;X;X;X;X;X;X;X;X;X",
";X;X;X;X;X;X;X  + { 0.7.0.o.# & @.7.5.4.a.G.G.G.G.G.G.c.5.5.5.5.5.8.S   .     ;X;X;X;X;X;X;X;X;X;X;X",
";X;X;X;X;X;X;X  + / %.$.%./ + & @.7.5.4.i.M.N.N.N.N.B.k.5.5.5.5.5.8.S         ;X;X;X;X;X;X;X;X;X;X;X",
";X;X;X;X;X;X;X;X;X: > > > =   & @.7.5.5.7.0.q.q.q.q.q.9.5.5.5.5.5.8.S     ;X;X;X;X;X;X;X;X;X;X;X;X;X",
";X;X;X;X;X;X;X;X;X            & @.7.5.5.3.1.1.1.1.1.1.1.1.2.4.5.5.8.S     ;X;X;X;X;X;X;X;X;X;X;X;X;X",
";X;X;X;X;X;X;X;X;X;X;X;X;X;X  & @.7.5.7.X.w q q q q q q 0 k ,.6.5.8.S     ;X;X;X;X;X;X;X;X;X;X;X;X;X",
";X;X;X;X;X;X;X;X;X;X;X;X;X;X  & @.7.5.8._                 3 ;.6.5.8.S     ;X;X;X;X;X;X;X;X;X;X;X;X;X",
";X;X;X;X;X;X;X;X;X;X;X;X;X;X  & @.7.5.8.` o     ;X;X;X    4 ;.6.5.8.S     ;X;X;X;X;X;X;X;X;X;X;X;X;X",
";X;X;X;X;X;X;X;X;X;X;X;X;X;X  * #.q.8.w.' o   ;X;X;X;X;X  5 :.0.8.w.D     ;X;X;X;X;X;X;X;X;X;X;X;X;X",
";X;X;X;X;X;X;X;X;X;X;X;X;X;X  # S ` ) ` B X   ;X;X;X;X;X  < G _ ) ` x     ;X;X;X;X;X;X;X;X;X;X;X;X;X",
";X;X;X;X;X;X;X;X;X;X;X;X;X;X    X o o o X     ;X;X;X;X;X    X o o o .     ;X;X;X;X;X;X;X;X;X;X;X;X;X",
";X;X;X;X;X;X;X;X;X;X;X;X;X;X                  ;X;X;X;X;X                  ;X;X;X;X;X;X;X;X;X;X;X;X;X",
";X;X;X;X;X;X;X;X;X;X;X;X;X;X;X;X;X;X;X;X;X;X;X;X;X;X;X;X;X;X;X;X;X;X;X;X;X;X;X;X;X;X;X;X;X;X;X;X;X;X",
";X;X;X;X;X;X;X;X;X;X;X;X;X;X;X;X;X;X;X;X;X;X;X;X;X;X;X;X;X;X;X;X;X;X;X;X;X;X;X;X;X;X;X;X;X;X;X;X;X;X",
";X;X;X;X;X;X;X;X;X;X;X;X;X;X;X;X;X;X;X;X;X;X;X;X;X;X;X;X;X;X;X;X;X;X;X;X;X;X;X;X;X;X;X;X;X;X;X;X;X;X",
";X;X;X;X;X;X;X;X;X;X;X;X;X;X;X;X;X;X;X;X;X;X;X;X;X;X;X;X;X;X;X;X;X;X;X;X;X;X;X;X;X;X;X;X;X;X;X;X;X;X",
";X;X;X;X;X;X;X;X;X;X;X;X;X;X;X;X;X;X;X;X;X;X;X;X;X;X;X;X;X;X;X;X;X;X;X;X;X;X;X;X;X;X;X;X;X;X;X;X;X;X",
";X;X;X;X;X;X;X;X;X;X;X;X;X;X;X;X;X;X;X;X;X;X;X;X;X;X;X;X;X;X;X;X;X;X;X;X;X;X;X;X;X;X;X;X;X;X;X;X;X;X",
";X;X;X;X;X;X;X;X;X;X;X;X;X;X;X;X;X;X;X;X;X;X;X;X;X;X;X;X;X;X;X;X;X;X;X;X;X;X;X;X;X;X;X;X;X;X;X;X;X;X"
};
