/* XPM */
static char *result[] = {
/* columns rows colors chars-per-pixel */
"50 50 77 1 ",
"  c #020203",
". c #070709",
"X c #080709",
"o c #0B0A0C",
"O c #0E0E10",
"+ c #0F1012",
"@ c #131316",
"# c #171718",
"$ c #17181B",
"% c #1B1B1D",
"& c #1E1E20",
"* c #1F2021",
"= c #222325",
"- c #252529",
"; c #26282B",
": c #292B2F",
"> c #2F3034",
", c #323439",
"< c #35383D",
"1 c #3B3D42",
"2 c #404347",
"3 c #45484C",
"4 c #474B51",
"5 c #4B5056",
"6 c #52565B",
"7 c #575B60",
"8 c #5B5E62",
"9 c #5C6066",
"0 c #5E636B",
"q c #62666C",
"w c #65696F",
"e c #666C74",
"r c #6A6E73",
"t c #6C7175",
"y c #6F767C",
"u c #71777C",
"i c #74797E",
"p c #777C82",
"a c #797E83",
"s c #7B8186",
"d c #7B828B",
"f c #81878D",
"g c #82898E",
"h c #868C93",
"j c #888E94",
"k c #8A9197",
"l c #8D949A",
"z c #90979E",
"x c #91989F",
"c c #959CA3",
"v c #98A0A7",
"b c #9CA4AB",
"n c #A0A7AF",
"m c #A7AFB7",
"M c #A7AFB8",
"N c #A8AFB8",
"B c #A7B0B8",
"V c #A9B2BA",
"C c #AEB7C1",
"Z c #AFB8C2",
"A c #B0BAC7",
"S c #B2BDC9",
"D c #B7C1CC",
"F c #B8C3CE",
"G c #BDC7D3",
"H c #BFCAD7",
"J c #C3CFDC",
"K c #C5D0DE",
"L c #C6D2E1",
"P c #CAD6E4",
"I c #CBD8E6",
"U c #CFDBEB",
"Y c #D2DFEF",
"T c #D3E0EF",
"R c #D4E1F1",
"E c #D9E6F6",
"W c None",
/* pixels */
"WWWWWWWWWWWWWWWWWWWWWWWWWWWWWWWWWWWWWWWWWWWWWWWWWW",
"WWWWWWWWWWWWWWWWWWWWWWWWWWWWWWWWWWWWWWWWWWWWWWWWWW",
"WWWWWWWWWWWWWWWWWWWWWWWWWWWWWWWWWWWWWWWWWWWWWWWWWW",
"WWWWWWWWWWWWWWWWWWWWWWWWWWWWWWWWWWWWWWWWWWWWWWWWWW",
"WWWWWWWWWO&$@&@&@&@&O&@&@&#$%#%@&+&+&@&@=WWWWWWWWW",
"WWWWWWW=.O@@@@@@@@@#@@@#@@@@@@@@@@#@@@@@.&WWWWWWWW",
"WWWWWWWo1CSSSASSAAASASASAAAAAAAASSASAASZ4oWWWWWWWW",
"WWWWWWWoeERRRRRRRRRRRRRRRRERRRRRRRRRRRREd.WWWWWWWW",
"WWWWWWWOrRRRRRYRYYYURYRURRTTRYYYRYRYRYRRd.WWWWWWWW",
"WWWWWWW+eRTTRPSSDDDDDDDDDSSSSGFSDSGUYRRRd.WWWWWWWW",
"WWWWWWWoeRTTPZmmmmmmmmmmMmmmmmmmmmMSUYTEd.WWWWWWWW",
"WWWWWWWOeRRPCmmmmmmmmmmmMmmmmmmmmmmmSUTRd.WWWWWWWW",
"WWWWWWWoeRRKHHHHHHHHHHHHHHHHHHHHHHHHHPRRd.WWWWWWWW",
"WWWWWWW@eRRTRRRRYRRRRRRRRRRRRRRRRRRRRRRRd.WWWWWWWW",
"WWWWWWWoeETTRRUUUUUUUUUUUUUUUUUUUUURRRRRd.WWWWWWWW",
"WWWWWWW+eRTRRJZZZCZZCZZCZZCCCCCCCCAPRRREd.WWWWWWWW",
"WWWWWWW+eRRYJVmMmBmmmmmmmmmmmmmmmmmZPTRRd.WWWWWWWW",
"WWWWWWWoeRRKCNNVBBBBVVNVNNNNNVNNNVNmZPRRd.WWWWWWWW",
"WWWWWWWOeRYPLPPLPLPPPLLPPPPPPPPKLPPLPIREd.WWWWWWWW",
"WWWWWWWoeERYRRRRTRRRRRRRTTTTTRRRRRRRTTRRd.WWWWWWWW",
"WWWWWWWOeRRRRUPIPPIPPPPPIIIIPIIPPPURRRREd.WWWWWWWW",
"WWWWWWWOeRRRRHVVVVVVVVVVVVVVVVVVVBVLRRRRd.WWWWWWWW",
"WWWWWWWoeRRUGMmmmmmBBmmmmmVNmVmmmmmVJYRRd.WWWWWWWW",
"WWWWWWWOeRRJCCCCCCVZZCCCZVVVAVAVCCCCZPREd.WWWWWWWW",
"WWWWWWWoeRRUUUUUYIUYUUUUYYUUUUUUUUUUUURRd.WWWWWWWW",
"WWWWWWW+eERRRRRRRRRTYRRRYYTTTTRRRRRRYRRRd.WWWWWWWW",
"WWWWWWWO5LPPPPPIPPPIPIPPIIPIPPPPIPPPPPIP0oWWWWWWWW",
"WWWWWWW%o><<<<<<<<<<<<<<<<<<,1,1<<<<<<<,O#WWWWWWWW",
"WWWWWWWW@                               oWWWWWWWWW",
"WWWWWWW%.      .     .     ..   .    .   $WWWWWWWW",
"WWWWWWW.:wuyyyyyyyuyyyyyyyyyyyuyyyyyyyy6>X;WWWWWWW",
"WWWWWW%O7cVVVVVVVVVVVVVVVVVVVVVVVVVVVVmst%$WWWWWWW",
"WWWWWW@;rfmmmmmmmNmmNmmmBBmmmmmmmmVmmmnuf1oWWWWWWW",
"WWWWWWX6simmmmNmmmmBmBBmmmmBmVmVmmmmmVxtzqXWWWWWWW",
"WWWWWWXphtbmmNmNVmmNNmmmmmmBmmVmmmmmVmltvfo-WWWWWW",
"WWWWW##ccrcmmmmmmmBmmBmBVBmmmmmmmmmVmVgtnn*#WWWWWW",
"WWWWW+<mbtjmNNmmmBmBmVNmmmmmmVmmVmmmmmaimm2XWWWWWW",
"WWWWWX6VnismmmmNNmNmmmmmmmmmmmmVmmmVmnufmVwXWWWWWW",
"WWWWWosVmdunmmmNmBmmmmmNmmmVmVmmmmmmVvtkmNj@=WWWWW",
"WWWW#%cVVktvVNmmNmmmVmmNVmmmmmmmmVmmmztxNmb-@WWWWW",
"WWWWO<mmVvrlBBmmBmNNmmmmmmmmmBBmNmmmNktvNNN3oWWWWW",
"WWWWX9BmmbygmmBmmmmmmNNmmmVmmmmmmmNNmdummmNtXWWWWW",
"WWW=ofmmmmapmBmmMMMMmmNmmNmmVmBBmNmmnismNmNl@%WWWW",
"WWW%$lmbnnsrvnnnnnnbnnnnnnnnnnnnnnnnvrdnnnnx*%WWWW",
"WWW*X=>:::=%;:::::::::::::::::::::::;%=::::-X%WWWW",
"WWWW%+.oooooXXoXXoooo.ooXoXooXoXoXoooooooXX+*WWWWW",
"WWWWWWWWWWWWWWWWWWWWWWWWWWWWWWWWWWWWWWWWWWWWWWWWWW",
"WWWWWWWWWWWWWWWWWWWWWWWWWWWWWWWWWWWWWWWWWWWWWWWWWW",
"WWWWWWWWWWWWWWWWWWWWWWWWWWWWWWWWWWWWWWWWWWWWWWWWWW",
"WWWWWWWWWWWWWWWWWWWWWWWWWWWWWWWWWWWWWWWWWWWWWWWWWW"
};
