/* XPM */
static char *result[] = {
/* columns rows colors chars-per-pixel */
"50 50 179 2 ",
"   c #030204",
".  c #030305",
"X  c #040305",
"o  c #030406",
"O  c #070608",
"+  c #070708",
"@  c #070709",
"#  c #080709",
"$  c #080809",
"%  c #08080A",
"&  c #09080A",
"*  c #09090A",
"=  c #09090B",
"-  c #0A0A0B",
";  c #0A0A0C",
":  c #0B0A0C",
">  c #0B0B0C",
",  c #0B0B0D",
"<  c #0D0C0E",
"1  c #0D0D0F",
"2  c #0E0E0F",
"3  c #0D0D10",
"4  c #0F0E10",
"5  c #0E0E11",
"6  c #101013",
"7  c #131315",
"8  c #121316",
"9  c #161517",
"0  c #161617",
"q  c #161618",
"w  c #161619",
"e  c #171719",
"r  c #19191A",
"t  c #19191B",
"y  c #1B1B1F",
"u  c #1D1D1E",
"i  c #1D1D1F",
"p  c #1B1C20",
"a  c #1F1F21",
"s  c #1E1F23",
"d  c #1F2021",
"f  c #1F2024",
"g  c #232325",
"h  c #252527",
"j  c #242428",
"k  c #24262A",
"l  c #272829",
"z  c #28292D",
"x  c #282A2E",
"c  c #282A2F",
"v  c #2C2D32",
"b  c #2C2E33",
"n  c #2D3034",
"m  c #2F3236",
"M  c #303237",
"N  c #303337",
"B  c #313438",
"V  c #313439",
"C  c #323439",
"Z  c #323539",
"A  c #36383E",
"S  c #3D4146",
"D  c #43464C",
"F  c #44474C",
"G  c #4B4E54",
"H  c #4C4F56",
"J  c #51555C",
"K  c #585B63",
"L  c #646972",
"P  c #6B717A",
"I  c #717780",
"U  c #737982",
"Y  c #7A8089",
"T  c #7F858F",
"R  c #838A95",
"E  c #838B95",
"W  c #87909B",
"Q  c #87919C",
"!  c #88919C",
"~  c #929AA6",
"^  c #98A1AD",
"/  c #9EA7B3",
"(  c #A0AAB6",
")  c #A6AEB5",
"_  c #A6AEB6",
"`  c #A7AEB6",
"'  c #A6AEB7",
"]  c #A7AFB7",
"[  c #A7AFB8",
"{  c #A5AEBA",
"}  c #A8B0B8",
"|  c #A8B0B9",
" . c #A9B1B9",
".. c #A9B1BA",
"X. c #A9B2BA",
"o. c #AAB2BB",
"O. c #AAB3BC",
"+. c #ABB3BC",
"@. c #ADB6BF",
"#. c #A9B3C0",
"$. c #AFB8C2",
"%. c #AFB9C7",
"&. c #B0B8C2",
"*. c #B0B9C3",
"=. c #B2BBC5",
"-. c #B2BBC7",
";. c #B1BBC9",
":. c #B2BCC8",
">. c #B4BECA",
",. c #B4BECB",
"<. c #B7C1CE",
"1. c #B8C2CE",
"2. c #B7C2D0",
"3. c #B8C3D1",
"4. c #BAC4D0",
"5. c #BAC5D0",
"6. c #BBC5D1",
"7. c #BBC6D1",
"8. c #BAC5D3",
"9. c #BEC9D5",
"0. c #BFC9D6",
"q. c #BEC9D7",
"w. c #BFCAD6",
"e. c #BFCAD7",
"r. c #BFCBD9",
"t. c #C0CBD8",
"y. c #C1CCD8",
"u. c #C1CCD9",
"i. c #C2CDD9",
"p. c #C0CCDA",
"a. c #C2CDDA",
"s. c #C3CEDB",
"d. c #C2CEDC",
"f. c #C3CFDC",
"g. c #C4CFDC",
"h. c #C4CFDD",
"j. c #C6D2DF",
"k. c #C6D2E0",
"l. c #C6D2E1",
"z. c #C7D3E2",
"x. c #C9D4E2",
"c. c #C8D4E3",
"v. c #C9D5E3",
"b. c #C8D5E4",
"n. c #CAD6E4",
"m. c #CAD6E5",
"M. c #CAD6E6",
"N. c #CBD7E6",
"B. c #CCD8E7",
"V. c #CCD8E8",
"C. c #CCD9E8",
"Z. c #CDD9E8",
"A. c #CDDAE9",
"S. c #CEDAEA",
"D. c #CEDBEA",
"F. c #CEDBEB",
"G. c #CFDBEB",
"H. c #CFDCEB",
"J. c #CFDCEC",
"K. c #D0DCEC",
"L. c #D0DDEC",
"P. c #D0DDED",
"I. c #D1DDED",
"U. c #D1DEED",
"Y. c #D1DEEE",
"T. c #D2DEEE",
"R. c #D2DFEE",
"E. c #D2DFEF",
"W. c #D3E0F0",
"Q. c #D3E0F1",
"!. c #D4E1F1",
"~. c #D4E2F1",
"^. c #D5E2F2",
"/. c #D5E3F3",
"(. c #D6E3F3",
"). c #D6E3F4",
"_. c #D6E4F4",
"`. c #D7E4F4",
"'. c None",
/* pixels */
"'.'.'.'.'.'.'.'.'.'.'.'.'.'.'.'.'.'.'.'.'.'.'.'.'.'.'.'.'.'.'.'.'.'.'.'.'.'.'.'.'.'.'.'.'.'.'.'.'.'.",
"'.'.'.'.'.'.'.'.'.'.'.'.'.'.'.'.'.'.'.'.'.'.'.'.'.'.'.'.'.'.'.'.'.'.'.'.'.'.'.'.'.'.'.'.'.'.'.'.'.'.",
"'.'.'.'.'.'.'.'.'.'.'.'.'.'.'.'.'.'.'.'.'.'.'.'.'.'.'.'.'.'.'.'.'.'.'.'.'.'.'.'.'.'.'.'.'.'.'.'.'.'.",
"'.'.'.'.'.'.'.'.'.'.'.'.'.'.'.'.'.'.'.'.'.'.'.'.'.'.'.'.'.'.'.'.'.'.'.'.'.'.'.'.'.'.'.'.'.'.'.'.'.'.",
"'.'.'.'.'.'.'.'.'.'.'.'.'.'.'.'.'.'.'.'.'.'.'.'.'.'.'.'.'.'.'.'.'.'.'.'.'.'.'.'.'.'.'.'.'.'.'.'.'.'.",
"'.'.'.'.'.'.'.'.'.'.'.'.'.'.'.'.'.'.'.'.'.'.'.'.'.'.'.'.'.'.'.'.'.'.'.'.'.'.'.'.'.'.'.'.'.'.'.'.'.'.",
"'.'.'.'.'.'.'.'.'.'.'.'.'.'.'.'.'.'.'.'.'.'.'.'.'.'.'.'.'.'.'.'.'.'.'.'.'.'.'.'.'.'.'.'.'.'.'.'.'.'.",
"'.'.'.'.'.'.'.'.'.'.'.'.'.'.'.'.'.'.'.'.'.'.'.'.'.'.'.'.'.'.'.'.'.'.'.'.'.'.'.'.'.'.'.'.'.'.'.'.'.'.",
"'.'.'.'.'.'.'.'.'.'.'.'.'.'.'.'.'.'.'.'.'.'.'.'.'.'.'.'.'.'.'.'.'.'.'.'.'.'.'.'.'.'.'.'.'.'.'.'.'.'.",
"'.'.'.'.'.'.'.'.'.'.'.'.'.'.'.'.'.'.'.'.'.'.'.'.'.'.'.'.'.'.'.'.'.'.'.'.'.'.'.'.'.'.'.'.'.'.'.'.'.'.",
"'.'.'.'.'.'.'.'.'.'.'.'.'.'.'.'.'.'.'.'.'.'.'.'.'.'.'.'.'.'.'.'.'.'.'.'.'.'.'.'.'.'.'.'.'.'.'.'.'.'.",
"'.'.'.'.'.'.'.'.'.'.'.'.'.'.'.'.'.'.'.'.'.'.'.'.'.'.'.'.'.'.'.'.'.'.'.'.'.'.'.'.'.'.'.'.'.'.'.'.'.'.",
"'.'.'.'.'.'.'.'.'.'.'.'.'.'.'.'.'.'.'.'.'.'.'.'.'.'.'.'.'.'.'.'.'.'.'.'.'.'.'.'.'.'.'.'.'.'.'.'.'.'.",
"'.'.'.'.'.'.'.'.'.'.'.'.'.'.'.'.'.'.'.'.'.'.'.'.'.'.'.'.'.'.'.'.'.'.'.'.'.'.'.'.'.'.'.'.'.'.'.'.'.'.",
"'.'.'.'.'.'.'.'.'.'.'.'.'.'.'.'.'.'.'.'.'.'.'.'.'.'.'.'.'.'.'.'.'.'.'.'.'.'.'.'.'.'.'.'.'.'.'.'.'.'.",
"'.'.'.'.'.'.'.'.'.'.'.'.'.'.'.'.'.'.'.'.'.'.'.'.'.'.'.'.'.'.'.'.'.'.'.'.'.'.'.'.'.'.'.'.'.'.'.'.'.'.",
"'.'.'.'.'.'.'.'.'.'.'.'.'.'.'.'.'.'.'.'.'.'.'.'.'.'.'.'.'.'.'.'.'.'.'.'.'.'.'.'.'.'.'.'.'.'.'.'.'.'.",
"'.'.'.'.'.'.'.'.'.'.'.'.'.'.'.'.'.'.'.'.'.'.'.'.'.'.'.'.'.'.'.'.'.'.'.'.'.'.'.'.'.'.'.'.'.'.'.'.'.'.",
"'.'.'.'.'.'.'.'.'.'.'.'.'.'.'.'.'.'.'.'.'.'.'.'.'.'.'.'.'.'.'.'.'.'.'.'.'.'.'.'.'.'.'.'.'.'.'.'.'.'.",
"'.'.'.'.'.'.'.'.'.'.'.'.'.'.'.'.'.'.'.'.'.'.'.'.'.'.'.'.'.'.'.'.'.'.'.'.'.'.'.'.'.'.'.'.'.'.'.'.'.'.",
"'.'.'.'.'.'.'.'.'.'.'.'.'.'.'.'.'.'.'.'.'.'.'.'.'.'.'.'.'.'.'.'.'.'.'.'.'.'.'.'.'.'.'.'.'.'.'.'.'.'.",
"'.'.'.'.'.'.'.'.'.'.'.'.'.'.'.'.'.'.'.'.'.'.'.'.'.'.'.'.'.'.'.'.'.'.'.'.'.'.'.'.'.'.'.'.'.'.'.'.'.'.",
"'.'.'.'.'.'.'.'.'.'.'.'.'.'.'.'.'.'.'.'.'.'.'.'.'.'.'.'.'.'.'.'.'.'.'.'.'.'.'.'.'.'.'.'.'.'.'.'.'.'.",
"'.'.'.'.'.'.'.'.'.'.'.'.'.'.'.'.'.'.'.'.'.'.'.'.'.'.'.'.'.'.'.'.'.'.'.'.'.'.'.'.'.'.'.'.'.'.'.'.'.'.",
"'.'.'.'.'.'.'.'.'.'.'.'.'.'.'.'.'.'.'.'.'.'.'.'.'.'.'.'.'.'.'.'.'.'.'.'.'.'.'.'.'.'.'.'.'.'.'.'.'.'.",
"'.'.'.'.'.'.'.'.'.'.'.'.'.'.'.'.'.'.'.'.'.'.'.'.'.'.'.'.'.'.'.'.'.'.'.'.'.'.'.'.'.'.'.'.'.'.'.'.'.'.",
"'.'.'.'.'.'.'.'.'.'.'.'.'.'.'.'.'.'.'.'.'.'.'.'.'.'.'.'.'.'.'.'.'.'.'.'.'.'.'.'.'.'.'.'.'.'.'.'.'.'.",
"'.'.'.'.'.'.'.'.'.'.'.'.'.'.'.'.'.'.'.'.'.'.'.'.'.'.'.'.'.'.'.'.'.'.'.'.'.'.'.'.'.'.'.'.'.'.'.'.'.'.",
"'.'.'.'.'.'.'.'.'.'.'.'.'.'.'.'.'.'.'.'.'.'.'.'.'.'.'.'.'.'.'.'.'.'.'.'.'.'.'.'.'.'.'.'.'.'.'.'.'.'.",
"'.'.'.'.'.'.'.t X . o o o o o o o o o o o o o o o o o o o o o o o o o o o o o .   q '.'.'.'.'.'.'.'.",
"'.'.'.'.'.'.'.% H E Q Q Q ! Q Q Q Q Q Q Q Q Q Q Q Q Q Q Q Q Q Q Q Q ! Q Q Q W R K = l '.'.'.'.'.'.'.",
"'.'.'.'.'.'.u w ;.~._.`.`.x.7.7.6.7.7.7.7.7.7.7.7.7.7.7.7.7.7.7.7.6.j.(.`.`.^.!.3.f 0 '.'.'.'.'.'.'.",
"'.'.'.'.'.'.4 A c.H.E.W.s.o.) _ _ _ _ _ _ _ _ _ _ _ _ _ _ _ _ _ _ _  .w.E.W.P.P.k.F > '.'.'.'.'.'.'.",
"'.'.'.'.'.'.$ L Y.K.U.a.X._ _ _ _ _ _ ` _ _ ' _ ` _ _ _ _ _ _ _ _ ` _ } 9.E.H.P.S.U O '.'.'.'.'.'.'.",
"'.'.'.'.'.'.; ~ E.P.S.h.y.u.i.a.a.a.a.a.a.a.a.a.a.a.a.a.a.a.a.a.a.a.i.u.s.K.F.J.D.( 5 h '.'.'.'.'.'.",
"'.'.'.'.'.e p 2.U.Y.H.!.!.W.B.n.m.m.m.m.m.m.m.m.m.m.m.m.m.m.m.m.m.n.B.Q.!.E.D.D.H.r.k 9 '.'.'.'.'.'.",
"'.'.'.'.'.1 S A.K.P.F.W.W.t.O..................................... .+.u.W.E.J.C.H.I.G - '.'.'.'.'.'.",
"'.'.'.'.'.# P /.Y.L.H.U.0.} ) _ _ _ _ _ _ _ _ _ _ _ _ _ _ _ _ _ _ _ ) | e.J.J.V.Y.(.Y + '.'.'.'.'.'.",
"'.'.'.'.'., ^ ).E.H.K.g.=.&.*.*.*.*.*.*.*.*.*.*.*.*.*.*.*.*.*.*.*.*.*.&.=.f.P.m.E.(.{ 6 a '.'.'.'.'.",
"'.'.'.'.q s 8.^.W.D.P.Z.P.U.U.U.U.U.U.U.U.U.U.U.U.U.U.U.U.U.U.U.U.U.U.I.P.C.L.B.W.!.d.x 7 '.'.'.'.'.",
"'.'.'.'.< D G.W.W.J.U.D.!.N.7.5.5.5.5.5.5.5.5.5.5.5.5.5.5.5.5.5.5.4.u.T.W.H.F.B.W.W.R.J : '.'.'.'.'.",
"'.'.'.'.# I (.W.W.P.L.F.v.$._ _ _ _ _ _ _ _ _ _ _ _ _ _ _ _ _ _ _ _ [ 6.L.H.S.G.W.W.(.T @ '.'.'.'.'.",
"'.'.'.g 3 / `.!.!.E.L.k.@._ ] ] ] ] ] ] ] ] ] ] ] ] ] ] ] ] ] ] ] ] ] ] 1.D.C.Y.!.!.).#.8 u '.'.'.'.",
"'.'.'.r y %.M.b.b.c.d.<.-.>.>.>.>.>.>.>.>.>.>.>.>.>.>.>.>.>.>.>.>.>.>.>.:.q.p.l.z.z.c.,.j 0 '.'.'.'.",
"'.'.'.a = c V B B V n b N Z Z Z Z C Z C Z C Z Z Z Z Z Z Z Z Z Z C Z C Z M v b m m m M z = i '.'.'.'.",
"'.'.'.'.i 2 & & * & = = * * * * & * & * & * & * & * * * * * * & * & * & * * = * * * & 1 d '.'.'.'.'.",
"'.'.'.'.'.'.'.'.'.'.'.'.'.'.'.'.'.'.'.'.'.'.'.'.'.'.'.'.'.'.'.'.'.'.'.'.'.'.'.'.'.'.'.'.'.'.'.'.'.'.",
"'.'.'.'.'.'.'.'.'.'.'.'.'.'.'.'.'.'.'.'.'.'.'.'.'.'.'.'.'.'.'.'.'.'.'.'.'.'.'.'.'.'.'.'.'.'.'.'.'.'.",
"'.'.'.'.'.'.'.'.'.'.'.'.'.'.'.'.'.'.'.'.'.'.'.'.'.'.'.'.'.'.'.'.'.'.'.'.'.'.'.'.'.'.'.'.'.'.'.'.'.'.",
"'.'.'.'.'.'.'.'.'.'.'.'.'.'.'.'.'.'.'.'.'.'.'.'.'.'.'.'.'.'.'.'.'.'.'.'.'.'.'.'.'.'.'.'.'.'.'.'.'.'."
};
